<?xml version="1.0" encoding="utf-8"?>
<!-- Generator: Adobe Illustrator 17.1.0, SVG Export Plug-In . SVG Version: 6.00 Build 0)  -->
<!DOCTYPE svg PUBLIC "-//W3C//DTD SVG 1.1//EN" "http://www.w3.org/Graphics/SVG/1.1/DTD/svg11.dtd">
<svg version="1.1" id="Camada_1" xmlns="http://www.w3.org/2000/svg" xmlns:xlink="http://www.w3.org/1999/xlink" x="0px" y="0px"
	 viewBox="0 0 500 500" enable-background="new 0 0 500 500" xml:space="preserve">
<g>
	
		<circle fill="none" stroke="#B25555" stroke-width="8" stroke-linecap="round" stroke-linejoin="round" stroke-miterlimit="10" cx="250" cy="313.9" r="32"/>
	
		<line fill="none" stroke="#B25555" stroke-width="8" stroke-linecap="round" stroke-linejoin="round" stroke-miterlimit="10" x1="218" y1="381" x2="281" y2="381"/>
	
		<line fill="none" stroke="#B25555" stroke-width="8" stroke-linecap="round" stroke-linejoin="round" stroke-miterlimit="10" x1="210" y1="90" x2="218" y2="90"/>
	
		<line fill="none" stroke="#B25555" stroke-width="8" stroke-linecap="round" stroke-linejoin="round" stroke-miterlimit="10" x1="210" y1="106" x2="218" y2="106"/>
	
		<line fill="none" stroke="#B25555" stroke-width="8" stroke-linecap="round" stroke-linejoin="round" stroke-miterlimit="10" x1="210" y1="74" x2="218" y2="74"/>
	
		<line fill="none" stroke="#B25555" stroke-width="8" stroke-linecap="round" stroke-linejoin="round" stroke-miterlimit="10" x1="282" y1="90" x2="290" y2="90"/>
	
		<line fill="none" stroke="#B25555" stroke-width="8" stroke-linecap="round" stroke-linejoin="round" stroke-miterlimit="10" x1="282" y1="106" x2="290" y2="106"/>
	
		<line fill="none" stroke="#B25555" stroke-width="8" stroke-linecap="round" stroke-linejoin="round" stroke-miterlimit="10" x1="282" y1="74" x2="290" y2="74"/>
	
		<line fill="none" stroke="#B25555" stroke-width="8" stroke-linecap="round" stroke-linejoin="round" stroke-miterlimit="10" x1="241" y1="75" x2="241" y2="103"/>
	
		<line fill="none" stroke="#B25555" stroke-width="8" stroke-linecap="round" stroke-linejoin="round" stroke-miterlimit="10" x1="257" y1="74" x2="257" y2="103"/>
	<path fill="none" stroke="#B25555" stroke-width="8" stroke-linecap="round" stroke-linejoin="round" stroke-miterlimit="10" d="
		M324.6,324.5c-7.2-6.8-11.4-16.3-11.2-26.2c0-0.3,0-0.6,0-0.9c0-23.6-22.2-43.3-51.5-47.6V122h3.5c8.8,0,15.5-6.8,15.5-15.6v-32
		c0-8.8-6.7-16.4-15.5-16.4h-31c-8.8,0-16.5,7.6-16.5,16.4v32c0,8.8,7.7,15.6,16.5,15.6h3.5v127.8c-29.3,4.3-51.5,23.9-51.5,47.6
		c0,0.3,0,0.6,0,0.9c0.3,9.9-3.9,19.4-11.2,26.2c-13.1,12.4-20.9,28-20.9,45.1c0,39.9,42.8,72.3,95.5,72.3s95.5-32.4,95.5-72.3
		C345.5,352.6,337.7,336.9,324.6,324.5z"/>
	
		<line fill="none" stroke="#B25555" stroke-width="8" stroke-linecap="round" stroke-linejoin="round" stroke-miterlimit="10" x1="238" y1="246" x2="238" y2="283"/>
	
		<line fill="none" stroke="#B25555" stroke-width="8" stroke-linecap="round" stroke-linejoin="round" stroke-miterlimit="10" x1="262" y1="246" x2="262" y2="283"/>
</g>
</svg>
