<?xml version="1.0" encoding="utf-8"?>
<!-- Generator: Adobe Illustrator 17.1.0, SVG Export Plug-In . SVG Version: 6.00 Build 0)  -->
<!DOCTYPE svg PUBLIC "-//W3C//DTD SVG 1.1//EN" "http://www.w3.org/Graphics/SVG/1.1/DTD/svg11.dtd">
<svg version="1.1" id="Camada_1" xmlns="http://www.w3.org/2000/svg" xmlns:xlink="http://www.w3.org/1999/xlink" x="0px" y="0px"
	 viewBox="0 0 500 500" enable-background="new 0 0 500 500" xml:space="preserve">
<g>
	<g>
		<path fill="#B25555" d="M248,104.8c31.8,0,61.7,12.4,84.1,34.9c22.5,22.5,34.9,52.4,34.9,84.1s-12.4,61.7-34.9,84.1
			c-22.5,22.5-52.4,34.9-84.1,34.9s-61.7-12.4-84.1-34.9c-22.5-22.5-34.9-52.4-34.9-84.1s12.4-61.7,34.9-84.1S216.2,104.8,248,104.8
			 M248,96.8c-70.1,0-127,56.9-127,127s56.9,127,127,127s127-56.9,127-127S318.1,96.8,248,96.8L248,96.8z"/>
	</g>
	<circle fill="#B25555" cx="121" cy="223.8" r="8"/>
	<circle fill="#B25555" cx="375" cy="223.8" r="8"/>
	<circle fill="#B25555" cx="248" cy="350.8" r="8"/>
	<circle fill="#B25555" cx="248" cy="96.8" r="8"/>
	<circle fill="#B25555" cx="158.2" cy="313.6" r="8"/>
	<circle fill="#B25555" cx="337.8" cy="134" r="8"/>
	<circle fill="#B25555" cx="337.8" cy="313.6" r="8"/>
	<circle fill="#B25555" cx="158.2" cy="134" r="8"/>
	<path fill="#B25555" d="M273.6,230c1.1,2.7,4,4.4,6.3,4.9l70.8,171c0.8,2,3.2,3,5.2,2.2s3-3.2,2.2-5.2l-70.8-171
		c1.7-2.2,2.2-5.2,1-7.9c-1.7-4.1-6.4-6-10.5-4.3C273.9,221.3,271.9,225.9,273.6,230z"/>
	<path fill="#B25555" d="M207.1,224.7c-1.1,2.7-0.3,5.9,1,7.9l-70.8,171c-0.8,2,0.1,4.4,2.2,5.2c2,0.8,4.4-0.1,5.2-2.2l70.8-171
		c2.7-0.4,5.2-2.1,6.3-4.9c1.7-4.1-0.2-8.8-4.3-10.5C213.5,218.7,208.8,220.7,207.1,224.7z"/>
</g>
</svg>
