<?xml version="1.0" encoding="utf-8"?>
<!-- Generator: Adobe Illustrator 17.1.0, SVG Export Plug-In . SVG Version: 6.00 Build 0)  -->
<!DOCTYPE svg PUBLIC "-//W3C//DTD SVG 1.1//EN" "http://www.w3.org/Graphics/SVG/1.1/DTD/svg11.dtd">
<svg version="1.1" id="Camada_1" xmlns="http://www.w3.org/2000/svg" xmlns:xlink="http://www.w3.org/1999/xlink" x="0px" y="0px"
	 viewBox="0 0 500 500" enable-background="new 0 0 500 500" xml:space="preserve">
<g>
	
		<rect x="154" y="138" fill="none" stroke="#B25555" stroke-width="8" stroke-linecap="round" stroke-linejoin="round" stroke-miterlimit="10" width="64" height="225"/>
	
		<line fill="none" stroke="#B25555" stroke-width="8" stroke-linecap="round" stroke-linejoin="round" stroke-miterlimit="10" x1="217" y1="171" x2="153" y2="171"/>
	
		<line fill="none" stroke="#B25555" stroke-width="8" stroke-linecap="round" stroke-linejoin="round" stroke-miterlimit="10" x1="217" y1="203" x2="153" y2="203"/>
	
		<line fill="none" stroke="#B25555" stroke-width="8" stroke-linecap="round" stroke-linejoin="round" stroke-miterlimit="10" x1="217" y1="235" x2="153" y2="235"/>
	
		<line fill="none" stroke="#B25555" stroke-width="8" stroke-linecap="round" stroke-linejoin="round" stroke-miterlimit="10" x1="217" y1="267" x2="153" y2="267"/>
	
		<line fill="none" stroke="#B25555" stroke-width="8" stroke-linecap="round" stroke-linejoin="round" stroke-miterlimit="10" x1="217" y1="299" x2="153" y2="299"/>
	
		<line fill="none" stroke="#B25555" stroke-width="8" stroke-linecap="round" stroke-linejoin="round" stroke-miterlimit="10" x1="218" y1="331" x2="154" y2="331"/>
	
		<rect x="219" y="138" fill="none" stroke="#B25555" stroke-width="8" stroke-linecap="round" stroke-linejoin="round" stroke-miterlimit="10" width="64" height="225"/>
	
		<rect x="283" y="138" fill="none" stroke="#B25555" stroke-width="8" stroke-linecap="round" stroke-linejoin="round" stroke-miterlimit="10" width="64" height="225"/>
	
		<line fill="none" stroke="#B25555" stroke-width="8" stroke-linecap="round" stroke-linejoin="round" stroke-miterlimit="10" x1="235" y1="363" x2="235" y2="139"/>
	
		<line fill="none" stroke="#B25555" stroke-width="8" stroke-linecap="round" stroke-linejoin="round" stroke-miterlimit="10" x1="251" y1="363" x2="251" y2="139"/>
	
		<line fill="none" stroke="#B25555" stroke-width="8" stroke-linecap="round" stroke-linejoin="round" stroke-miterlimit="10" x1="267" y1="363" x2="267" y2="139"/>
	<rect x="186" y="163" fill="#B25555" width="32" height="16"/>
	<rect x="186" y="195" fill="#B25555" width="32" height="16"/>
	<rect x="186" y="259" fill="#B25555" width="32" height="16"/>
	<rect x="186" y="291" fill="#B25555" width="32" height="16"/>
	<rect x="186" y="323" fill="#B25555" width="32" height="16"/>
	<circle fill="#B25555" cx="301.5" cy="153.5" r="4"/>
	<circle fill="#B25555" cx="301.5" cy="185.5" r="4"/>
	<circle fill="#B25555" cx="301.5" cy="217.5" r="4"/>
	<circle fill="#B25555" cx="301.5" cy="249.5" r="4"/>
	<circle fill="#B25555" cx="301.5" cy="281.5" r="4"/>
	<circle fill="#B25555" cx="301.5" cy="313.5" r="4"/>
	<circle fill="#B25555" cx="301.5" cy="345.5" r="4"/>
	<circle fill="#B25555" cx="326.5" cy="169.5" r="4"/>
	<circle fill="#B25555" cx="326.5" cy="201.5" r="4"/>
	<circle fill="#B25555" cx="326.5" cy="233.5" r="4"/>
	<circle fill="#B25555" cx="326.5" cy="265.5" r="4"/>
	<circle fill="#B25555" cx="326.5" cy="297.5" r="4"/>
	<circle fill="#B25555" cx="326.5" cy="329.5" r="4"/>
</g>
</svg>
