<?xml version="1.0" encoding="utf-8"?>
<!-- Generator: Adobe Illustrator 17.1.0, SVG Export Plug-In . SVG Version: 6.00 Build 0)  -->
<!DOCTYPE svg PUBLIC "-//W3C//DTD SVG 1.1//EN" "http://www.w3.org/Graphics/SVG/1.1/DTD/svg11.dtd">
<svg version="1.1" id="Camada_1" xmlns="http://www.w3.org/2000/svg" xmlns:xlink="http://www.w3.org/1999/xlink" x="0px" y="0px"
	 viewBox="0 0 500 500" enable-background="new 0 0 500 500" xml:space="preserve">
<g>
	
		<line fill="none" stroke="#A29267" stroke-width="8" stroke-linecap="round" stroke-linejoin="round" stroke-miterlimit="10" x1="223" y1="412" x2="274" y2="412"/>
	
		<line fill="none" stroke="#A29267" stroke-width="8" stroke-linecap="round" stroke-linejoin="round" stroke-miterlimit="10" x1="209" y1="92" x2="217" y2="92"/>
	
		<line fill="none" stroke="#A29267" stroke-width="8" stroke-linecap="round" stroke-linejoin="round" stroke-miterlimit="10" x1="209" y1="100" x2="217" y2="100"/>
	
		<line fill="none" stroke="#A29267" stroke-width="8" stroke-linecap="round" stroke-linejoin="round" stroke-miterlimit="10" x1="209" y1="84" x2="217" y2="84"/>
	
		<line fill="none" stroke="#A29267" stroke-width="8" stroke-linecap="round" stroke-linejoin="round" stroke-miterlimit="10" x1="209" y1="76" x2="217" y2="76"/>
	<path fill="none" stroke="#A29267" stroke-width="8" stroke-linecap="round" stroke-linejoin="round" stroke-miterlimit="10" d="
		M304.1,356.5c-0.1-17.4,9.6-36.3,9.6-36.3c0-7.3-9-10.5-13.5-4.8l-13,16.6c-2.8,3.6-7.6,5.1-12,3.7c-4.2-1.3-8.6-5.3-13.2-8.6V66.5
		c0-4.4-3.6-8-8-8h-20c-8.8,0-16,7.2-16,16v32c0,8.8,7.2,16,16,16h4v204.8c-4.5,3.3-8.8,7.1-12.9,8.4c-4.4,1.4-9.1-0.1-12-3.7
		l-13.4-16.7c-4.5-5.7-14-2.5-14,4.8c0,0,10.2,18.9,10.4,36.3c0.1,9.9-9.9,20-9.9,37.8c0,25.8,28.7,47.3,64,47.3s64-20.8,64-47.3
		C314.3,376.5,304.2,366.4,304.1,356.5z"/>
	<circle fill="#A29267" cx="237.7" cy="75.8" r="4"/>
	<circle fill="#A29267" cx="237.7" cy="83.8" r="4"/>
	<circle fill="#A29267" cx="237.7" cy="91.8" r="4"/>
	<circle fill="#A29267" cx="237.7" cy="99.8" r="4"/>
</g>
</svg>
