<?xml version="1.0" encoding="utf-8"?>
<!-- Generator: Adobe Illustrator 17.1.0, SVG Export Plug-In . SVG Version: 6.00 Build 0)  -->
<!DOCTYPE svg PUBLIC "-//W3C//DTD SVG 1.1//EN" "http://www.w3.org/Graphics/SVG/1.1/DTD/svg11.dtd">
<svg version="1.1" id="Camada_1" xmlns="http://www.w3.org/2000/svg" xmlns:xlink="http://www.w3.org/1999/xlink" x="0px" y="0px"
	 viewBox="0 0 500 500" enable-background="new 0 0 500 500" xml:space="preserve">
<g>
	
		<rect x="58" y="274" fill="none" stroke="#A29267" stroke-width="8" stroke-linecap="round" stroke-linejoin="round" stroke-miterlimit="10" width="384" height="64"/>
	
		<rect x="58" y="209" fill="none" stroke="#A29267" stroke-width="8" stroke-linecap="round" stroke-linejoin="round" stroke-miterlimit="10" width="384" height="64"/>
	
		<line fill="none" stroke="#A29267" stroke-width="8" stroke-linecap="round" stroke-linejoin="round" stroke-miterlimit="10" x1="90" y1="274" x2="90" y2="338"/>
	
		<line fill="none" stroke="#A29267" stroke-width="8" stroke-linecap="round" stroke-linejoin="round" stroke-miterlimit="10" x1="122" y1="274" x2="122" y2="338"/>
	
		<line fill="none" stroke="#A29267" stroke-width="8" stroke-linecap="round" stroke-linejoin="round" stroke-miterlimit="10" x1="154" y1="274" x2="154" y2="338"/>
	
		<line fill="none" stroke="#A29267" stroke-width="8" stroke-linecap="round" stroke-linejoin="round" stroke-miterlimit="10" x1="186" y1="274" x2="186" y2="338"/>
	
		<line fill="none" stroke="#A29267" stroke-width="8" stroke-linecap="round" stroke-linejoin="round" stroke-miterlimit="10" x1="218" y1="274" x2="218" y2="338"/>
	
		<line fill="none" stroke="#A29267" stroke-width="8" stroke-linecap="round" stroke-linejoin="round" stroke-miterlimit="10" x1="250" y1="274" x2="250" y2="338"/>
	
		<line fill="none" stroke="#A29267" stroke-width="8" stroke-linecap="round" stroke-linejoin="round" stroke-miterlimit="10" x1="282" y1="274" x2="282" y2="338"/>
	
		<line fill="none" stroke="#A29267" stroke-width="8" stroke-linecap="round" stroke-linejoin="round" stroke-miterlimit="10" x1="314" y1="274" x2="314" y2="338"/>
	
		<line fill="none" stroke="#A29267" stroke-width="8" stroke-linecap="round" stroke-linejoin="round" stroke-miterlimit="10" x1="346" y1="274" x2="346" y2="338"/>
	
		<line fill="none" stroke="#A29267" stroke-width="8" stroke-linecap="round" stroke-linejoin="round" stroke-miterlimit="10" x1="378" y1="274" x2="378" y2="338"/>
	
		<line fill="none" stroke="#A29267" stroke-width="8" stroke-linecap="round" stroke-linejoin="round" stroke-miterlimit="10" x1="410" y1="274" x2="410" y2="338"/>
	<rect x="82" y="274" fill="#A29267" width="16" height="32"/>
	<path fill="#A29267" d="M90.6,232h-0.2c-4.4,0-7.9,3.5-7.9,7.9v0.2c0,4.4,3.5,7.9,7.9,7.9h0.2c4.4,0,7.9-3.5,7.9-7.9v-0.2
		C98.5,235.5,95,232,90.6,232z"/>
	<path fill="#A29267" d="M122.6,232h-0.2c-4.4,0-7.9,3.5-7.9,7.9v0.2c0,4.4,3.5,7.9,7.9,7.9h0.2c4.4,0,7.9-3.5,7.9-7.9v-0.2
		C130.5,235.5,127,232,122.6,232z"/>
	<path fill="#A29267" d="M154.6,232h-0.2c-4.4,0-7.9,3.5-7.9,7.9v0.2c0,4.4,3.5,7.9,7.9,7.9h0.2c4.4,0,7.9-3.5,7.9-7.9v-0.2
		C162.5,235.5,159,232,154.6,232z"/>
	<path fill="#A29267" d="M186.6,232h-0.2c-4.4,0-7.9,3.5-7.9,7.9v0.2c0,4.4,3.5,7.9,7.9,7.9h0.2c4.4,0,7.9-3.5,7.9-7.9v-0.2
		C194.5,235.5,191,232,186.6,232z"/>
	<rect x="114" y="274" fill="#A29267" width="16" height="32"/>
	<rect x="178" y="274" fill="#A29267" width="16" height="32"/>
	<rect x="210" y="274" fill="#A29267" width="16" height="32"/>
	<rect x="242" y="274" fill="#A29267" width="16" height="32"/>
	<rect x="306" y="274" fill="#A29267" width="16" height="32"/>
	<rect x="338" y="274" fill="#A29267" width="16" height="32"/>
	<rect x="402" y="274" fill="#A29267" width="16" height="32"/>
</g>
</svg>
