<?xml version="1.0" encoding="utf-8"?>
<!-- Generator: Adobe Illustrator 17.0.0, SVG Export Plug-In . SVG Version: 6.00 Build 0)  -->
<!DOCTYPE svg PUBLIC "-//W3C//DTD SVG 1.1//EN" "http://www.w3.org/Graphics/SVG/1.1/DTD/svg11.dtd">
<svg version="1.1" id="Layer_1" xmlns="http://www.w3.org/2000/svg" xmlns:xlink="http://www.w3.org/1999/xlink" x="0px" y="0px"
	 width="612px" height="792px" viewBox="0 0 612 792" enable-background="new 0 0 612 792" xml:space="preserve">
<path fill="#A29267" d="M468.563,90H143.438C65.025,90,0,156.938,0,239.175v315.563C0,635.063,65.025,702,143.438,702H466.65
	c80.325,0,143.437-66.938,143.437-149.175v-313.65C612,156.938,546.975,90,468.563,90z M416.925,269.775c-17.212,0-36.337,0-45.9,0
	s-17.212,9.563-17.212,15.3c0,7.65,0,45.9,0,45.9s55.462,0,63.112,0c-1.913,34.425-7.65,66.938-7.65,66.938h-55.462v198.9h-82.238
	V399.825H229.5v-66.938h40.163c0,0,0-43.987,0-55.462c0-9.563-1.913-76.5,84.15-76.5c11.475,0,38.25,0,61.2,0
	C416.925,229.613,416.925,260.212,416.925,269.775z"/>
</svg>
