<?xml version="1.0" encoding="utf-8"?>
<!-- Generator: Adobe Illustrator 17.0.0, SVG Export Plug-In . SVG Version: 6.00 Build 0)  -->
<!DOCTYPE svg PUBLIC "-//W3C//DTD SVG 1.1//EN" "http://www.w3.org/Graphics/SVG/1.1/DTD/svg11.dtd">
<svg version="1.1" id="Camada_1" xmlns="http://www.w3.org/2000/svg" xmlns:xlink="http://www.w3.org/1999/xlink" x="0px" y="0px"
	 width="64px" height="64px" viewBox="0 0 64 64" enable-background="new 0 0 64 64" xml:space="preserve">
<g>
	<circle fill="#A29267" cx="32" cy="28" r="2"/>
</g>
<g>
	<circle fill="#A29267" cx="32" cy="36" r="2"/>
</g>
<g>
	<path fill="#A29267" d="M44,39.404c-5,0-8.653-3.666-8.653-8.171c0-3.66,3.291-6.637,7.236-6.637c3.211,0,5.864,2.427,5.864,5.409
		c0,2.441-2.114,4.532-4.738,4.532c-2.154,0-3.886-1.538-3.886-3.538h1c0,1,1.304,2.538,2.906,2.538c2.072,0,3.759-1.59,3.759-3.48
		c0-2.431-2.164-4.435-4.823-4.435c-3.393,0-6.318,2.516-6.318,5.624c0,3.954,3.653,7.158,7.653,7.158V39.404z"/>
</g>
<g>
	<path fill="#A29267" d="M20,39.404v-1c4,0,7.653-3.217,7.653-7.171c0-3.108-2.843-5.637-6.236-5.637
		c-2.659,0-4.864,1.978-4.864,4.409c0,1.89,1.665,3.532,3.738,3.532c1.603,0,2.886-1.538,2.886-2.538h1c0,2-1.752,3.538-3.907,3.538
		c-2.624,0-4.758-2.039-4.758-4.48c0-2.982,2.612-5.435,5.823-5.435c3.945,0,7.318,2.964,7.318,6.624
		C28.653,35.751,25,39.404,20,39.404z"/>
</g>
</svg>
