<?xml version="1.0" encoding="utf-8"?>
<!-- Generator: Adobe Illustrator 17.1.0, SVG Export Plug-In . SVG Version: 6.00 Build 0)  -->
<!DOCTYPE svg PUBLIC "-//W3C//DTD SVG 1.1//EN" "http://www.w3.org/Graphics/SVG/1.1/DTD/svg11.dtd">
<svg version="1.1" id="Camada_1" xmlns="http://www.w3.org/2000/svg" xmlns:xlink="http://www.w3.org/1999/xlink" x="0px" y="0px"
	 viewBox="0 0 500 500" enable-background="new 0 0 500 500" xml:space="preserve">
<g>
	
		<rect x="58" y="283" fill="none" stroke="#A29267" stroke-width="8" stroke-linecap="round" stroke-linejoin="round" stroke-miterlimit="10" width="384" height="64"/>
	
		<line fill="none" stroke="#A29267" stroke-width="8" stroke-linecap="round" stroke-linejoin="round" stroke-miterlimit="10" x1="90" y1="283" x2="90" y2="347"/>
	
		<line fill="none" stroke="#A29267" stroke-width="8" stroke-linecap="round" stroke-linejoin="round" stroke-miterlimit="10" x1="122" y1="283" x2="122" y2="347"/>
	
		<line fill="none" stroke="#A29267" stroke-width="8" stroke-linecap="round" stroke-linejoin="round" stroke-miterlimit="10" x1="154" y1="283" x2="154" y2="347"/>
	
		<line fill="none" stroke="#A29267" stroke-width="8" stroke-linecap="round" stroke-linejoin="round" stroke-miterlimit="10" x1="186" y1="283" x2="186" y2="347"/>
	
		<line fill="none" stroke="#A29267" stroke-width="8" stroke-linecap="round" stroke-linejoin="round" stroke-miterlimit="10" x1="218" y1="283" x2="218" y2="347"/>
	
		<line fill="none" stroke="#A29267" stroke-width="8" stroke-linecap="round" stroke-linejoin="round" stroke-miterlimit="10" x1="250" y1="283" x2="250" y2="347"/>
	
		<line fill="none" stroke="#A29267" stroke-width="8" stroke-linecap="round" stroke-linejoin="round" stroke-miterlimit="10" x1="282" y1="283" x2="282" y2="347"/>
	
		<line fill="none" stroke="#A29267" stroke-width="8" stroke-linecap="round" stroke-linejoin="round" stroke-miterlimit="10" x1="314" y1="283" x2="314" y2="347"/>
	
		<line fill="none" stroke="#A29267" stroke-width="8" stroke-linecap="round" stroke-linejoin="round" stroke-miterlimit="10" x1="346" y1="283" x2="346" y2="347"/>
	
		<line fill="none" stroke="#A29267" stroke-width="8" stroke-linecap="round" stroke-linejoin="round" stroke-miterlimit="10" x1="378" y1="283" x2="378" y2="347"/>
	
		<line fill="none" stroke="#A29267" stroke-width="8" stroke-linecap="round" stroke-linejoin="round" stroke-miterlimit="10" x1="410" y1="283" x2="410" y2="347"/>
	<rect x="82" y="283" fill="#A29267" width="16" height="32"/>
	<rect x="114" y="283" fill="#A29267" width="16" height="32"/>
	<rect x="178" y="283" fill="#A29267" width="16" height="32"/>
	<rect x="210" y="283" fill="#A29267" width="16" height="32"/>
	<rect x="242" y="283" fill="#A29267" width="16" height="32"/>
	<rect x="306" y="283" fill="#A29267" width="16" height="32"/>
	<rect x="338" y="283" fill="#A29267" width="16" height="32"/>
	<rect x="402" y="283" fill="#A29267" width="16" height="32"/>
	<g>
		
			<rect x="58" y="218" fill="none" stroke="#A29267" stroke-width="8" stroke-linecap="round" stroke-linejoin="round" stroke-miterlimit="10" width="384" height="64"/>
		
			<rect x="58" y="153" fill="none" stroke="#A29267" stroke-width="8" stroke-linecap="round" stroke-linejoin="round" stroke-miterlimit="10" width="384" height="64"/>
		
			<line fill="none" stroke="#A29267" stroke-width="8" stroke-linecap="round" stroke-linejoin="round" stroke-miterlimit="10" x1="90" y1="218" x2="90" y2="282"/>
		
			<line fill="none" stroke="#A29267" stroke-width="8" stroke-linecap="round" stroke-linejoin="round" stroke-miterlimit="10" x1="122" y1="218" x2="122" y2="282"/>
		
			<line fill="none" stroke="#A29267" stroke-width="8" stroke-linecap="round" stroke-linejoin="round" stroke-miterlimit="10" x1="154" y1="218" x2="154" y2="282"/>
		
			<line fill="none" stroke="#A29267" stroke-width="8" stroke-linecap="round" stroke-linejoin="round" stroke-miterlimit="10" x1="186" y1="218" x2="186" y2="282"/>
		
			<line fill="none" stroke="#A29267" stroke-width="8" stroke-linecap="round" stroke-linejoin="round" stroke-miterlimit="10" x1="218" y1="218" x2="218" y2="282"/>
		
			<line fill="none" stroke="#A29267" stroke-width="8" stroke-linecap="round" stroke-linejoin="round" stroke-miterlimit="10" x1="250" y1="218" x2="250" y2="282"/>
		
			<line fill="none" stroke="#A29267" stroke-width="8" stroke-linecap="round" stroke-linejoin="round" stroke-miterlimit="10" x1="282" y1="218" x2="282" y2="282"/>
		
			<line fill="none" stroke="#A29267" stroke-width="8" stroke-linecap="round" stroke-linejoin="round" stroke-miterlimit="10" x1="314" y1="218" x2="314" y2="282"/>
		
			<line fill="none" stroke="#A29267" stroke-width="8" stroke-linecap="round" stroke-linejoin="round" stroke-miterlimit="10" x1="346" y1="218" x2="346" y2="282"/>
		
			<line fill="none" stroke="#A29267" stroke-width="8" stroke-linecap="round" stroke-linejoin="round" stroke-miterlimit="10" x1="378" y1="218" x2="378" y2="282"/>
		
			<line fill="none" stroke="#A29267" stroke-width="8" stroke-linecap="round" stroke-linejoin="round" stroke-miterlimit="10" x1="410" y1="218" x2="410" y2="282"/>
		<rect x="82" y="218" fill="#A29267" width="16" height="32"/>
		<rect x="114" y="218" fill="#A29267" width="16" height="32"/>
		<rect x="178" y="218" fill="#A29267" width="16" height="32"/>
		<rect x="210" y="218" fill="#A29267" width="16" height="32"/>
		<rect x="242" y="218" fill="#A29267" width="16" height="32"/>
		<rect x="306" y="218" fill="#A29267" width="16" height="32"/>
		<rect x="338" y="218" fill="#A29267" width="16" height="32"/>
		<rect x="402" y="218" fill="#A29267" width="16" height="32"/>
	</g>
</g>
</svg>
