<?xml version="1.0" encoding="utf-8"?>
<!-- Generator: Adobe Illustrator 17.1.0, SVG Export Plug-In . SVG Version: 6.00 Build 0)  -->
<!DOCTYPE svg PUBLIC "-//W3C//DTD SVG 1.1//EN" "http://www.w3.org/Graphics/SVG/1.1/DTD/svg11.dtd">
<svg version="1.1" id="Camada_1" xmlns="http://www.w3.org/2000/svg" xmlns:xlink="http://www.w3.org/1999/xlink" x="0px" y="0px"
	 viewBox="0 0 500 500" enable-background="new 0 0 500 500" xml:space="preserve">
<g>
	<path fill="none" stroke="#A29267" stroke-width="8" stroke-linecap="round" stroke-linejoin="round" stroke-miterlimit="10" d="
		M234.2,267.2h-0.2c-6.6,0-11.9-5.3-11.9-11.9V138h24v117.3C246.1,261.9,240.7,267.2,234.2,267.2z"/>
	<path fill="none" stroke="#A29267" stroke-width="8" stroke-linecap="round" stroke-linejoin="round" stroke-miterlimit="10" d="
		M242.1,138h-16c-4.4,0-8-3.6-8-8v-16c0-4.4,3.6-8,8-8h16c4.4,0,8,3.6,8,8v16C250.1,134.4,246.5,138,242.1,138z"/>
	
		<line fill="none" stroke="#A29267" stroke-width="8" stroke-linecap="round" stroke-linejoin="round" stroke-miterlimit="10" x1="210" y1="154" x2="258" y2="154"/>
	
		<line fill="none" stroke="#A29267" stroke-width="8" stroke-linecap="round" stroke-linejoin="round" stroke-miterlimit="10" x1="210" y1="170" x2="258" y2="170"/>
	<path fill="none" stroke="#A29267" stroke-width="8" stroke-linecap="round" stroke-linejoin="round" stroke-miterlimit="10" d="
		M266.6,290c0-14.4,9.6-26.5,22.8-30.3c-2.4-28.4-26.5-50.7-55.8-50.7s-53.3,22.3-55.8,50.7c13.2,3.8,22.8,15.9,22.8,30.3
		c0,17.1-13.6,31-30.6,31.5c-0.3,2.3-0.4,4.6-0.4,7c0,35.3,28.7,64,64,64s64-28.7,64-64c0-2.4-0.1-4.7-0.4-7
		C280.2,321,266.6,307.1,266.6,290z"/>
	<path fill="none" stroke="#A29267" stroke-width="8" stroke-linecap="round" stroke-linejoin="round" stroke-miterlimit="10" d="
		M246,391.3v-51.5c0-6.6-5.3-10.8-11.8-10.8h-0.2c-6.6,0-11.9,4.2-11.9,10.8v51.7c3,0.7,7.6,1.1,11.5,1.1
		C237.8,392.5,242,392.1,246,391.3z"/>
	
		<line fill="none" stroke="#A29267" stroke-width="8" stroke-linecap="round" stroke-linejoin="round" stroke-miterlimit="10" x1="322" y1="394" x2="322" y2="202"/>
	
		<line fill="none" stroke="#A29267" stroke-width="4" stroke-linecap="round" stroke-linejoin="round" stroke-miterlimit="10" x1="330" y1="394" x2="330" y2="202"/>
</g>
</svg>
