<?xml version="1.0" encoding="utf-8"?>
<!-- Generator: Adobe Illustrator 17.1.0, SVG Export Plug-In . SVG Version: 6.00 Build 0)  -->
<!DOCTYPE svg PUBLIC "-//W3C//DTD SVG 1.1//EN" "http://www.w3.org/Graphics/SVG/1.1/DTD/svg11.dtd">
<svg version="1.1" id="Camada_1" xmlns="http://www.w3.org/2000/svg" xmlns:xlink="http://www.w3.org/1999/xlink" x="0px" y="0px"
	 viewBox="0 0 500 500" enable-background="new 0 0 500 500" xml:space="preserve">
<g>
	<path fill="none" stroke="#B25555" stroke-width="8" stroke-linecap="round" stroke-linejoin="round" stroke-miterlimit="10" d="
		M230.9,253.8c8.7,6.9-0.7,25.5-21,41.6S166,319,157.2,312c-8.7-6.9,0.7-25.5,21-41.6S222.2,246.9,230.9,253.8z"/>
	<circle fill="#B25555" cx="265.1" cy="274.8" r="12"/>
	<circle fill="#B25555" cx="265.1" cy="250.8" r="12"/>
	<circle fill="#B25555" cx="265.1" cy="226.8" r="12"/>
	<path fill="none" stroke="#B25555" stroke-width="8" stroke-linecap="round" stroke-linejoin="round" stroke-miterlimit="10" d="
		M162.1,314.3c37,11.5,36.3,64.1,71.2,64.2l0.6,0c34.6-0.1,62.6-28.2,62.6-62.9V186.2c0-20.4,9.7-38.4,24.8-49.8
		c3.8,0,10.6,2,17.7,2.1c3.9,0.1,7-3.2,7-7v-1.6v-0.1c0-3.5-2.9-8.4-6.4-8.4l-18.9,2.3c-14.3,0.1-29.4,5.8-39.4,16.1l-0.3,0.3
		c-9.9,10.1-15.5,23.6-15.5,37.7v136.5c0,8.7-7.1,15.8-15.8,15.8h-0.3h-0.2c-8.4,0-15.2-6.8-15.2-15.2v-52.2"/>
</g>
</svg>
