<?xml version="1.0" encoding="utf-8"?>
<!-- Generator: Adobe Illustrator 17.1.0, SVG Export Plug-In . SVG Version: 6.00 Build 0)  -->
<!DOCTYPE svg PUBLIC "-//W3C//DTD SVG 1.1//EN" "http://www.w3.org/Graphics/SVG/1.1/DTD/svg11.dtd">
<svg version="1.1" id="Camada_1" xmlns="http://www.w3.org/2000/svg" xmlns:xlink="http://www.w3.org/1999/xlink" x="0px" y="0px"
	 viewBox="0 0 500 500" enable-background="new 0 0 500 500" xml:space="preserve">
<g>
	<path fill="none" stroke="#B25555" stroke-width="8" stroke-linecap="round" stroke-linejoin="round" stroke-miterlimit="10" d="
		M373.2,251h-27.8c0,52-41.6,93-92.9,93h-0.6h-0.6h-0.6c-51.3,0-92.9-41-92.9-93h-27.8c0,57,38.2,103.5,90.5,116.7
		c-0.5,2.2-1.4,4.2-1.4,6.5v0.6c0,17.1,15.1,32.1,32.2,32.1h0.6c17.1,0,29.2-15,29.2-32.1v-0.6c0-2.3,0.6-4.3,0.1-6.5
		C333.4,354.5,373.2,308,373.2,251z"/>
	<path fill="none" stroke="#B25555" stroke-width="8" stroke-linecap="round" stroke-linejoin="round" stroke-miterlimit="10" d="
		M289.6,157H313v-5.5c0-34.2-26.7-60.5-60.9-60.5h-1.3c-34.2,0-63.9,26.2-63.9,60.5v5.5h26.4c7.6,0,12.6,4.7,12.6,12.3v0.3
		c0,7.6-5,14.4-12.6,14.4H187v39h26.4c7.6,0,12.6,4.8,12.6,12.4v0.3c0,7.6-5,14.3-12.6,14.3H187v0c0,34.2,29.7,63,63.9,63h1.3
		c34.2,0,60.9-28.7,60.9-63v0h-23.4c-7.6,0-15.6-6.7-15.6-14.3v-0.3c0-7.6,8-12.4,15.6-12.4H313v-39h-23.4
		c-7.6,0-15.6-6.8-15.6-14.4v-0.3C274,161.7,282,157,289.6,157z"/>
</g>
</svg>
