<?xml version="1.0" encoding="utf-8"?>
<!-- Generator: Adobe Illustrator 17.1.0, SVG Export Plug-In . SVG Version: 6.00 Build 0)  -->
<!DOCTYPE svg PUBLIC "-//W3C//DTD SVG 1.1//EN" "http://www.w3.org/Graphics/SVG/1.1/DTD/svg11.dtd">
<svg version="1.1" id="Camada_1" xmlns="http://www.w3.org/2000/svg" xmlns:xlink="http://www.w3.org/1999/xlink" x="0px" y="0px"
	 viewBox="0 0 500 500" enable-background="new 0 0 500 500" xml:space="preserve">
<g>
	
		<rect x="58" y="361" fill="none" stroke="#A29267" stroke-width="8" stroke-linecap="round" stroke-linejoin="round" stroke-miterlimit="10" width="384" height="64"/>
	<path fill="none" stroke="#A29267" stroke-width="8" stroke-linecap="round" stroke-linejoin="round" stroke-miterlimit="10" d="
		M442.3,361h-384V176.6c0-30.7,24.9-55.6,55.6-55.6h75.8c30.7,0,55.6,24.9,55.6,55.6v1.1c0,30.8,25,55.7,55.8,55.6l85.5-0.2
		c30.8-0.1,55.8,24.8,55.8,55.6V361z"/>
	
		<line fill="none" stroke="#A29267" stroke-width="8" stroke-linecap="round" stroke-linejoin="round" stroke-miterlimit="10" x1="90" y1="361" x2="90" y2="425"/>
	
		<line fill="none" stroke="#A29267" stroke-width="8" stroke-linecap="round" stroke-linejoin="round" stroke-miterlimit="10" x1="122" y1="361" x2="122" y2="425"/>
	
		<line fill="none" stroke="#A29267" stroke-width="8" stroke-linecap="round" stroke-linejoin="round" stroke-miterlimit="10" x1="154" y1="361" x2="154" y2="425"/>
	
		<line fill="none" stroke="#A29267" stroke-width="8" stroke-linecap="round" stroke-linejoin="round" stroke-miterlimit="10" x1="186" y1="361" x2="186" y2="425"/>
	
		<line fill="none" stroke="#A29267" stroke-width="8" stroke-linecap="round" stroke-linejoin="round" stroke-miterlimit="10" x1="218" y1="361" x2="218" y2="425"/>
	
		<line fill="none" stroke="#A29267" stroke-width="8" stroke-linecap="round" stroke-linejoin="round" stroke-miterlimit="10" x1="250" y1="361" x2="250" y2="425"/>
	
		<line fill="none" stroke="#A29267" stroke-width="8" stroke-linecap="round" stroke-linejoin="round" stroke-miterlimit="10" x1="282" y1="361" x2="282" y2="425"/>
	
		<line fill="none" stroke="#A29267" stroke-width="8" stroke-linecap="round" stroke-linejoin="round" stroke-miterlimit="10" x1="314" y1="361" x2="314" y2="425"/>
	
		<line fill="none" stroke="#A29267" stroke-width="8" stroke-linecap="round" stroke-linejoin="round" stroke-miterlimit="10" x1="346" y1="361" x2="346" y2="425"/>
	
		<line fill="none" stroke="#A29267" stroke-width="8" stroke-linecap="round" stroke-linejoin="round" stroke-miterlimit="10" x1="378" y1="361" x2="378" y2="425"/>
	
		<line fill="none" stroke="#A29267" stroke-width="8" stroke-linecap="round" stroke-linejoin="round" stroke-miterlimit="10" x1="410" y1="361" x2="410" y2="425"/>
	<rect x="82" y="361" fill="#A29267" width="16" height="32"/>
	<rect x="114" y="361" fill="#A29267" width="16" height="32"/>
	<rect x="178" y="361" fill="#A29267" width="16" height="32"/>
	<rect x="210" y="361" fill="#A29267" width="16" height="32"/>
	<rect x="242" y="361" fill="#A29267" width="16" height="32"/>
	<rect x="306" y="361" fill="#A29267" width="16" height="32"/>
	<rect x="338" y="361" fill="#A29267" width="16" height="32"/>
	<rect x="402" y="361" fill="#A29267" width="16" height="32"/>
</g>
</svg>
