<svg id="Camada_1" data-name="Camada 1" xmlns="http://www.w3.org/2000/svg" viewBox="0 0 446 389"><defs><style>.cls-1{fill:#a29267;}</style></defs><title>ico-home</title><rect class="cls-1" x="23.45" y="218.9" width="191.07" height="29.4"/><polygon class="cls-1" points="214.52 248.3 214.52 218.9 22.96 218.9 1.49 248.3 214.52 248.3"/><polygon class="cls-1" points="292.76 13.66 243.08 0.1 6.57 54.41 217.96 54.41 292.76 13.66"/><path class="cls-1" d="M444.83,61.4l-70-15.65H261.5l-43,10.63-.24,0H3.79l17.66,37.7V66.3a1,1,0,0,1,1-1h193l45.76-10.64a.83.83,0,0,1,.22,0H375a.91.91,0,0,1,.23,0l45.87,10.66a1,1,0,0,1,.77,1v29Z"/><polygon class="cls-1" points="225.5 52.58 260.94 43.83 288.57 22.69 308.85 7.17 225.5 52.58"/><polygon class="cls-1" points="328.26 8.28 319.72 1.38 264.34 43.75 372.15 43.75 328.26 8.28"/><polygon class="cls-1" points="438.11 57.85 327 4.69 332.83 9.4 375.43 43.82 438.11 57.85"/><path class="cls-1" d="M23.45,67.3V216.9H214.52V67.3ZM158.92,179.43a6,6,0,0,1-6,6H85.05a6,6,0,0,1-6-6V129.37c0-3.31,15.15-15.93,39.93-15.93s39.94,12.62,39.94,15.93Z"/><path class="cls-1" d="M23.45,250.3V387.92H138.62V357.53a5.89,5.89,0,0,0-5.89-5.89H51.37a6,6,0,0,1-6-6v-70a6,6,0,0,1,6-6H186.59a6,6,0,0,1,6,6V387.92h21.93V250.3Z"/><path class="cls-1" d="M262.38,222.9v165H374v-165Zm95.74,114.73a6,6,0,0,1-6,6H284.25a6,6,0,0,1-6-6V287.57c0-3.31,15.15-15.93,39.93-15.93s39.94,12.62,39.94,15.93Z"/><path class="cls-1" d="M374,218.9V56.63H262.38V218.9ZM276.38,86a6,6,0,0,1,6-6H354a6,6,0,0,1,6,6v73.89a6,6,0,0,1-6,6H282.38a6,6,0,0,1-6-6Z"/><polygon class="cls-1" points="216.52 227.29 216.52 387.92 260.38 387.92 260.38 222.99 216.52 227.29"/><path class="cls-1" d="M260.38,219V56.89l-43.86,10.2v156.2ZM226.11,90.76a6.78,6.78,0,0,1,6-6.6L247,82.68a5.35,5.35,0,0,1,6,5.41V162a6.77,6.77,0,0,1-6,6.6l-14.88,1.48a5.35,5.35,0,0,1-6-5.41Z"/><path class="cls-1" d="M419.85,223.29V67.09L376,56.89V219ZM384.47,88.09a5.35,5.35,0,0,1,6-5.41l14.89,1.48a6.78,6.78,0,0,1,6,6.6v73.88a5.35,5.35,0,0,1-6,5.41l-14.89-1.48a6.78,6.78,0,0,1-6-6.6Z"/><polygon class="cls-1" points="375.98 222.99 375.98 387.92 419.85 387.92 419.85 227.29 375.98 222.99"/></svg>