<?xml version="1.0" encoding="utf-8"?>
<!-- Generator: Adobe Illustrator 17.1.0, SVG Export Plug-In . SVG Version: 6.00 Build 0)  -->
<!DOCTYPE svg PUBLIC "-//W3C//DTD SVG 1.1//EN" "http://www.w3.org/Graphics/SVG/1.1/DTD/svg11.dtd">
<svg version="1.1" id="Camada_1" xmlns="http://www.w3.org/2000/svg" xmlns:xlink="http://www.w3.org/1999/xlink" x="0px" y="0px"
	 viewBox="0 0 308.9 206.8" enable-background="new 0 0 308.9 206.8" xml:space="preserve">
<path fill-rule="evenodd" clip-rule="evenodd" fill="#A29368" d="M293.6,162.1c-0.5,0.7-1.3,1-2,1.5c-0.7,0.4-1.4,1-2.1,1.3
	l-3.8,2.4l-2.5,1.5c-1.8,1.1-13.7,8.1-15.1,8.3l-0.8,0.6c-10.2,5-15.9,7.7-27.4,12c-33.1,12.5-70.5,17.5-106.1,13.3
	c-39.9-4.6-78.2-19.4-111.6-41l-6.1-4c0.5-1.1,4.3-5.8,5.4-7.2c1.8-2.4,3.6-4.6,5.5-6.9c1-1.3,1.9-2.3,2.8-3.5
	c0.7-0.8,7.6-10,8.2-10.3c1,0.5,2.1,1.3,3.1,1.9c7.6,4.6,21,11.9,29,15.2c8,3.3,12.3,5.3,21.1,8.2c45.4,15.2,88.7,13.5,133.6-2.1
	c16.3-5.7,26-10.8,40.4-18.4l12.4-7.2c0.2,0.2,0.1,0.1,0.3,0.3c0,0,0.2,0.2,0.3,0.3l15,18.9l7.8,9.7c-0.2,0.3,0,0.1-0.3,0.3
	c0,0-0.2,0.1-0.2,0.2l-1.3,0.9C298.2,159.1,294.4,162,293.6,162.1L293.6,162.1z M155.7,145.3c-5.2,0-5.1-1.3-10,3.9l-4.1,4.1
	c-1.4,1.5-4.1,3.5-6.8,4.1c-3.1,0.6-5.9-1.1-8.9-1.8c-4.2-1-5.3-0.2-7.2-3.6c-1.4-2.6-2.2-5-3.1-7.9c-0.3-1-0.3-0.8-1.3-1.3
	c-4-1.9-9-5.9-13.3-6.3c0.2,2,0.6,3.9-0.5,5.5c-0.9,1.4-2.2,1.5-3.8,2.3c0.1,0.9,1,1.5,2.4,2.5c0.9,0.7,1.8,1.3,2.8,2.1
	c4.7,3.4,6.8,4.6,10.7,8.5c5.3,5.4,35.8,6,44.4,6c7.8,0,36.9-1,43.1-5c1-0.6,2-1.4,2.8-2.1c0.5-0.4,0.9-0.7,1.3-1.1l6.2-6
	c1.6-1.5,3.3-3.2,5.3-4.4c-0.2-1.1-2-2-2.8-2.5c-0.2-2.1,0.2-5.5-1.5-6.5c-0.7,0.2-2.7,1.5-3.5,2c-1.8,1.1-5.5,2.9-7.5,3.7
	c-1.3,0.5-3.1,1-3.8,1.8c-5.1,5.6,3.3,9.5-9.5,12.9c-7.4,2-11.2,0.8-16.9-3.7c-1-0.8-2.2-1.7-3.1-2.5l-2.9-2.7
	c-1.5-1.2-2-2.4-3.2-2.4C159.2,144.9,157.6,145.3,155.7,145.3L155.7,145.3z M86.9,144.1c2.3,0,5-0.1,6.8-1.1l-5.7-0.3
	C87.5,143.1,87.2,143.5,86.9,144.1L86.9,144.1z M169.6,143.2c-0.1-0.2-2.8-2.3-3.8-2.4c0.3,1.3,5.1,5.9,5.3,6l0.1,0.5
	c-1.2,0.2-2.8,0.2-3.8-0.2c-0.4-0.3,0.1-1-1.3-1.6c-0.8-0.4-1.4-0.4-2.1,0c0.2,0.9,0.5,0.8,1.1,1.3c1.3,1.2,2.8,2.7,4.4,2.6
	c0.2-1.2-1.2-1.3,0.6-1.5c1.1-0.1,1.8,0.2,2.7,0.3c-0.6,0.5-0.3,0.1-0.8,0.7c0.2,0.7,0.5,0.7,0.9,1.3c-1,0.2-1.8-0.2-2.3-0.2
	c-0.6,0.1-0.2-0.1-0.6,0.3c0.5,0.3,0.7,0.5,1,0.8c3.6,4,10.4,4.9,15.8,3.1c6.6-2.1,4.6-2.8,5.7-5.5c1-2.4,4.1-6.7,2.7-7.6
	c-1.1-0.2-1.1,0.4-2.4,0.3c-0.5-1.3-0.6-3.6-1.1-4.6c0,0-0.1,0.1-0.1,0.1l-0.2,0.6c0,0.2,0,0.6-0.1,0.9c-0.1,2.5-0.2,3.4-2.7,3.4
	c-0.6,0.7,0,0.8-1.1,1.1c-0.8-0.5-0.1-0.3-0.6-0.9l-0.1-1.4c-1.2,0.8-2.5,6.9-2.5,7c0.2,0.4-0.2,0.1,0.4,0.4
	c0.3,0.2,0.4,0.2,0.7,0.2c0.5,0.1,1,0.1,1.5,0.1c1.6,0.2,1.5,0.5,2.3,0.9l0.1,0.5c-3.7,0-11.6-2.9-15.2-4.5
	C172.6,144.8,170.9,143.6,169.6,143.2L169.6,143.2z M216,141.1c1.1,4.3,16.4,4,17.5-0.8c-4.8,1.3-7.5,2.5-13.1,1.7
	C218.7,141.8,217.5,141.4,216,141.1L216,141.1z M91.8,139.8c-0.4-0.7-0.9-0.5-1.8-0.6c-0.7-0.1-1.2-0.1-2-0.1l0,0.9
	C88.8,140,91.1,140.2,91.8,139.8L91.8,139.8z M170.3,140.9c0.5,4.3,13.1,2.7,13.2,2.7c0,0,0.1-0.1,0.1-0.1c0.1,0.2,0.8-1.8,0.9-2.1
	c0.2-0.8,0.4-1.9,0.4-2.8c-0.1-2.1-1-1-4-0.1C178.3,139.3,170.8,140.5,170.3,140.9L170.3,140.9z M134.9,156c1.1-0.5,2.9-2,3.9-2.8
	l2.9-2.1c0.7-0.5,0.6-0.3,0.8-0.9c-0.4-0.6-0.3-0.3-1-0.5c0.1-2.1,3.7-2.8,3.9-4.3c-2.1-0.7-4.1,2.4-5.5,1.6c0-0.7,0.2-0.6,0.8-1.1
	l8.3-5.3c0.6-0.5,0.3-0.1,0.5-0.6c-2.9-0.4-9.3,4.6-12.8,6.4c-2,1.1-12.2,6.7-13.9,3.6c0.5-1.7,5.1-0.4,6.1-2.3
	c0.4-0.8-0.3-1.3-0.6-1.8c-0.5-0.8-1.2-3-1.6-4c-0.3-0.7-0.5-1.3-0.8-2c-0.1-0.3-0.2-0.8-0.3-1c-0.4-0.8,0-0.6-1-0.6
	c0,0.1-0.1,0.1-0.1,0.2c0,0.1,0,0.1,0,0.2c-0.2,1.2-0.1-0.1,0,0.5l0.6,2.8c-2.8-1.4-3.8-0.6-7-0.8l-1.4-0.3c0.3,3.1,3,11.2,4.6,12.4
	c1,0.7,5.2,0.9,7,1.6C129.8,155.2,133.7,157.3,134.9,156L134.9,156z M129.3,137.7l-1.3,0c0,0.1,0,0.1,0,0.2c0,1.1,0.3,0.9,0.7,2.9
	c0.7,3.5,0.2,3,4.3,3.7c1.1,0.2,2.8,0.8,3.3-0.1c1.4-0.5,4.5-2.7,4.9-3.7c-0.8-0.6-1.8-0.7-3-0.6c-2.2,0.1-1.3-0.1-2.9-0.8
	C133.9,138.5,131.1,137.8,129.3,137.7L129.3,137.7z M220.8,138.9c1.2,0,3.9,0,4.7-0.5c-0.1-0.7,0.4-0.7-2.2-0.6c-1,0-2,0-3,0.1
	L220.8,138.9L220.8,138.9z M91.3,137.7c-0.1-0.9-0.5-0.8-1.6-0.8C89.9,137.7,90.2,137.6,91.3,137.7L91.3,137.7z M151.3,133.7
	c-2,0.3-2.2,1.9-1.2,3.5c0.4,0.7,2.4,2.9,3.2,1.4l0.9-0.2c1.2,1.3,0.9,3.6,4.5,2.7c2.7-0.7,4.1-6.9,1.4-7.1c-1-0.1-1.9,0.7-2.7,1.1
	C156,135.7,153.5,133.9,151.3,133.7L151.3,133.7z M96.8,134.6c-1.4,0.8,0.4,3.4,2.1,2.7C100.2,136.7,98.1,133.9,96.8,134.6
	L96.8,134.6z M87.4,135.5c-1.2-0.3-4.1-0.3-5.6-0.1c-0.6,0.1-1.8,0.3-2.3,0.6c-0.6,0.4-2.6,5.2,6.3,0.9
	C87.7,136.1,87.5,136.6,87.4,135.5L87.4,135.5z M223.4,135.7c-1.5-0.1-3.4-0.3-2.8,0.9c0.3,0.6,2.9,0.3,3.6,0.2L223.4,135.7
	L223.4,135.7z M215.5,136.2c0.8-0.3,1.7-0.7,2.1-1.5c-0.3-1-1.1-1.6-2.3-1.4c-2.2,0.5-2.3,1.8-0.9,3.3L215.5,136.2L215.5,136.2z
	 M224.6,133.1l-4.5,0.1l-0.1,1.2l4.7-0.1L224.6,133.1L224.6,133.1z M143,138.6c-0.4-1.2-1.1-0.3-3.2-1.4c-0.8-0.4-2.3-1.5-1.4-2.9
	c1.1-1.1,2.9,1.9,7.3,2.5c1.3,0.2,2.4,0.3,2.4-1c-1.3-1.2-7.6-0.4-11.4-5.4c-1-1.3-1.3-1.8-3.2-2.4c-4.7-1.4-5.2-0.6-9.2,0.8
	c-3.1,1-5.6,1.9-7.5,3.9c-2.4,2.6-1.7,9.3,0.7,4.8c1.4-2.6,4.1-3.6,7.8-2.9C128.7,135.2,140.3,140.5,143,138.6L143,138.6z
	 M233.8,137.2l0.9,0.7c0.6-1.9,0.6-3.2-1.3-3.8c-1.3-0.4-4.1-0.5-5.5-0.3C229,134.9,232,135.6,233.8,137.2L233.8,137.2z
	 M113.9,139.5c-0.3-5.6,0.5-5.9,0.5-8.6c-2.6-1.7-8.4-4.3-11.7-5.1c-0.8-0.2-1.6-0.3-2.5-0.4c-0.9,0-2-0.1-2.6,0.5
	c-3,0.1-2,4.4-2.1,6.3c4.9-0.5,13.7,5.9,18.1,7.5L113.9,139.5L113.9,139.5z M53,127.1c-0.9,1.3-1.4,5.5,3.3,7c3,0.9,7,0.7,10.2,0.5
	l20.4-1.7c0.9-1.9,1.7-6.9-2.4-8c-6.2-1.7-20.2,4.3-29.2,2.8C54.5,127.5,53.8,127.2,53,127.1L53,127.1z M175.4,129.6
	c0.4,0.8,0.5,0.5,0.8,1.2c-0.6,1.3-3.3,1.6-4.9,1.8c-1.4,0.2-5.2,0.6-3.9,2.5c0.9,0.6,4.1-0.4,5.4-0.6c3.4-0.4,4,1.4,1.3,1.8
	c-3,0.4-9.9,0-11.4,1.8c5.8,1,10.5,1,15.9-0.9c5.1-1.8,8.2-3.5,14.2-4.1c-0.8-2.1-4.4-4.8-7.1-5.6
	C181.4,126.5,177.8,129,175.4,129.6L175.4,129.6z M169.7,129l-31.2-0.1c-0.6,2.9,3.6,3.9,6.7,5.2c2,0.9,1.3,0.2,3.9-1.2
	c1.2-0.6,3-1.7,4.6-0.9c1.7,0.8,1.7,1.9,4.4,0.9c2.9-1.1,2.5,0.3,4.6,0.6C166,134,169.5,131.4,169.7,129L169.7,129z M232.9,124.2
	c-5.1,0-10.4,0.2-6.8,5.6c1,1.5,1,1.2,3.2,1.5c3.7,0.5,30.4,4.4,31-3.6c0.1-1.6-0.9-3.6-1.8-4.4c-1.7,0.4-1.4,1-5.4,1.4
	C247.1,125.2,239.3,124.2,232.9,124.2L232.9,124.2z M198.8,139.7c4.3-0.6,10.1-4.5,13.3-7.1c0.7-0.5,1-1.1,2.2-1.2
	c1.3-0.2,2.4,0.4,3.5,0l0.4-5.5c-0.2-2.1-1.4-2.8-3.4-2c-8.7,3.1-9.1,4-16.5,7.8c-2.8,1.5-0.9,2,0.1,3.3
	C199.7,136.8,198.6,137.8,198.8,139.7L198.8,139.7z M138.4,127.2c0.3-0.9,0.6-1.7,0.9-2.8c0.2-1,0.2-2.4,0.6-3.2
	c0.8,0.9,2.2,4.7,2,6.1L138.4,127.2L138.4,127.2z M174.6,127.8c6.5-1.9,10.4-3.5,16.5,1.1c1,0.8,2.7,2.9,4.8,1.9
	c4.1-1.9,9.8-5,14.2-7.1c1.2-0.6,3.7-1.7,4.7-2.4c-0.7-0.6-8-3.8-9.8-4.7c-2.7-1.3-1.8-8.7-1.9-12.7c-0.1-2-0.2-2.3-0.9-3.9
	c-0.5-1-0.9-2.4-1.5-3.2c-1.1,2.5-0.7,3.8-3,8.2c-1.5,2.8-2.7,4.8-4.3,7.1c-1.2,1.6-3.9,4.9-5.3,5.9c-1.4,1.1-4.5,4.5-7.4,4
	c-0.3-0.2-2.3-3.5-5.3-3.9c-0.7-0.1-0.8-0.1-1.2,0.2c-3,0.1-3.3,6.2-0.4,9.9L174.6,127.8L174.6,127.8z M224.1,131.8
	c2.1-0.7,0.3-1.4-0.6-3.9c-0.7-1.8-0.7-3.6,0.5-4.8c2.4-2.3,7.5-1.2,11-0.8c5.6,0.6,12.5,1.1,18.1,0c2-0.4,3.2-1,4.9-1.6
	c-0.4-0.9-2.8-3-3.7-4l-7.7-8c-0.7-0.7-1.3-1.3-1.9-2c-0.5-0.5-1.7-1.7-2-1.9l-6.2,5.9c-0.5,0.4-0.7,0.7-1.2,1.2
	c-7.7,7.2-14.8,9-15.3,9.4l-1.3,0.2c0.6,2.6,1.2,2.7,1.4,6.7c0.1,1.3-0.3,3,0.6,3.5C221.4,132.1,223,132.1,224.1,131.8L224.1,131.8z
	 M127.5,119.8c-0.7-1.5-0.1-1.6,1.6-1.8c1.3-0.1,2-0.3,3.1-0.5C131.3,118.6,129.6,120.5,127.5,119.8L127.5,119.8z M51.5,127.6
	c-3.8-1.2-3.4-8.7-0.8-13.1c0.9-1.6,2-2.8,2.4-3.4c1.2,0.6,0.3,0.9,2.4,1.9c2,1,4.7,1.2,4.4,3.4c-0.1,1.1-1.1,1.5-1.8,2.1
	C53.8,122.2,52.7,126.2,51.5,127.6L51.5,127.6z M176.6,116c1.9-0.2,7.9,1.8,5.7,4.1C180.8,121.7,178.7,116.9,176.6,116L176.6,116z
	 M145.3,115.8c2.6-0.3,16.8-0.9,18.2,0.2c-3.7,1-13.4,1.2-17.3,0.2L145.3,115.8L145.3,115.8z M252.2,109.9c0,0,0.1,0,0.2-0.1
	c1.5-0.5,4.6,0.3,8.5-0.1c1.3,1.8,2.7,3.9,3.6,6.5c0.8,2.6,0.6,6.3-1.4,7.5c-0.2,0.6-0.7,0.9-1.2,1.2c-0.9-7.4-9.9-11.7-10.3-14.8
	L252.2,109.9L252.2,109.9z M155.1,107.1c2.1-0.2,4.6-0.2,6.7,0.1c2.1,0.3,3,0.4,2.7,4.1c-0.1,0.9-0.3,2.2-0.7,2.8
	c-0.5,0.8-1.5,0.6-2.7,0.6c-2.2,0-4.3-0.1-6.5-0.2c-2.1-0.1-4.2-0.4-6.3-0.6c-1.3-0.1-2.1,0-2.7-0.9c-0.8-1.3-1.6-4.7,0.1-5
	L155.1,107.1L155.1,107.1z M93.3,133.4c2.3-1.2-0.3-3.5,0.7-6.2c2.1-5.7,13.7-1.4,17.4,0.6c5.5,3,6.3,1.9,11.7-0.3
	c3.2-1.4,6.3-2,9.8-0.8c1,0.3,2,0.9,2.8,1.1c1.4-1.5,3.6-6.1,1.4-8.3c-1-1-2.6-1.5-4.1-0.4c-1.1,0.8-1.6,2-2.3,3.4
	c-4.8-1.4-10.9-6.5-14-10.6c-3.1-4.1-4.4-7.4-6.3-12.2c-0.5-1.3-1.2-3.7-2.1-4.2c-1.1,0.9-1.3,7.2-1.4,8.9c-0.1,3.3,0.1,6.7,0.6,9.9
	c0.5,2.7-2,4.3-4.4,5.6c-1.9,1.1-5.1,2.6-7.5,3c-3.2,0.6-12.7-4.2-15.1-5.5c-5.3-2.9-11.7-8.6-11.9-8.8c-0.2,0.3-0.6,0.6-0.9,1
	c-0.4,0.4-0.4,0.6-0.8,1l-7.1,8.2c-1.2,1.4-3.4,3.7-4.5,5.2c-0.3,0.4-0.7,0.6-0.8,1.1c2.6,2.1,15.3-0.5,19.4-1.2
	c1.1-0.2,2.1-0.4,3.2-0.6l2.7-0.5c0.5-0.2,0.2,0,0.4-0.2c1.2,0.2,2.4-0.4,5.5,1.1c6.4,3.1,2,7.4,2.4,8.8
	C88.6,134,92.6,134.1,93.3,133.4L93.3,133.4z M98.9,105c0.9-0.2,2.5-0.7,2.2,0.8c-0.4,1.7-5.2,3.4-7.7,3.3c-3.3-0.1-3.6-2.2-0.4-2.6
	C95.3,106.1,96.7,105.5,98.9,105L98.9,105z M212,104c1,0.5,1,0.7,2.3,0.7c1.7,0.1,3.5,0.9,3.6,2.5c-3,0.2-8.5-0.5-8.3-3.4
	C210.3,103.3,211.3,103.6,212,104L212,104z M29.7,109.4c2.6-0.6,5.5-1.6,8.2-2.3c2.9-0.7,5.7-1.3,8.7-1.9c6.2-1.2,12.8-1.8,19.3-1.8
	c-0.3-1-4.8-6.7-5.5-8.4c-6.1-0.2-12.6,0.7-18.3,1.7c-4.6,0.9-10.5,2.3-15,3.8c-0.2,0.1-0.3,0.1-0.4,0.1l-0.5,0.3
	c-1.3,0-15.6,5.5-16.9,6.3l-1.5,0.6c1.2,0.8,5,1.3,6.7,1.9l-2.9,6.8l1.6-0.7c1.3-0.4,2.8-1.2,4.1-1.7c1.4-0.6,2.7-1.1,4.1-1.7
	C24,111.3,26.9,110.5,29.7,109.4L29.7,109.4z M135.8,97.8l36.1,0l0.1,2.3l-36.2-0.1L135.8,97.8L135.8,97.8z M281.6,93.5
	c1.6-0.1,10.3,3.2,12.2,3.9c4.1,1.7,7.4,3.4,11.1,5.2c-0.7,0.4-6.4,1.2-7.3,1l-0.3,0.3c0,0-0.1,0.1-0.1,0.1l2.1,4.7
	c0.3,0.3,0.5,0.8,0.5,1.2c-1.9-0.5-4.3-1.7-6.3-2.4c-7.3-2.7-12-4.3-19.9-6.5c-4.5-1.2-10-2.3-14.9-2.5c-3.6-0.2-8.2,0-11.3,1.8
	c-4.3,2.4-3.9-1.4-1.6-4.4c6-8.2,25.5-5.1,34.7-2.9L281.6,93.5L281.6,93.5z M164.9,58.1l2.5,0.1l0,11.4c0,4.8,0.2,23-0.1,27l-2.5,0
	L164.9,58.1L164.9,58.1z M160,58.1l2.5,0.1l-0.1,38.3l-2.5,0L160,58.1L160,58.1z M155.3,96.5c-0.3-1.2-0.1-36.5-0.1-38.5l2.5,0.2
	l0,38.3L155.3,96.5L155.3,96.5z M135.6,58.1l2.5,0.1l0,20.7c0,4.6,0.2,13.6-0.1,17.7l-2.5,0L135.6,58.1L135.6,58.1z M179.9,103.7
	c-2.7,0.8-4.5-0.4-5.4-2.2c-1-2.1-0.6-4.9-0.6-7.3c0-5.4-0.2-11.1,0-16.5l1.5,2.9c0.6,0.4,0.8,1.2,1.2,1.8c2,3.2,3.6,5.2,6.2,7.8
	l3.1,2.5C186.8,97.8,183.7,102.6,179.9,103.7L179.9,103.7z M169.8,58.1l2.5,0.1l0.1,38.4l-2.6,0L169.8,58.1L169.8,58.1z M150.3,58.1
	l2.5,0.1l0,38.4l-2.6,0L150.3,58.1L150.3,58.1z M145.4,58.1l2.5,0.1l0.1,38.4l-2.6,0L145.4,58.1L145.4,58.1z M140.5,58.1l2.5,0.1
	l0.1,38.4l-2.6,0L140.5,58.1L140.5,58.1z M133.5,78.5l0.3-0.5c0.3,4.6,0,9.9,0,14.5c0,4.7,1,10-2.9,11.6c-5.1,1.3-9.7-4.5-9.1-11.2
	c3.9-2.5,7.1-6.4,9.4-10.3C131.7,81.8,133.1,79,133.5,78.5L133.5,78.5z M174.4,105.2c5.3,0.6,6.7,0.7,9.6-2.5c2-2.2,3.1-5.5,5.4-7.3
	c-0.2,3.5-3.5,9.3-5.2,11C179.5,111.3,175.2,107.9,174.4,105.2L174.4,105.2z M121.1,99.3c1.1,0.7,1.8,3.6,4.4,5.3
	c2.5,1.7,4.7,1.4,7.9,0.9c-0.6,1.5-1.9,2.9-3.4,3.4c-6.1,2-10.6-8-11.5-13.3C119,96,120.9,98.3,121.1,99.3L121.1,99.3z M96.2,87.6
	c0.5-0.5,1.3-0.6,2.2-0.8c3.8-1,4.9-2,6.3-0.3c1.5,1.8,2.4,5.7,1.9,8l-0.5,0.9c-1.3,1-5.9-1.5-7.5-1.8c-1-0.2-1-0.2-1.5-0.9
	c-0.7-1-2.4-3.3-2.7-4.4C95,87.9,95.5,87.6,96.2,87.6L96.2,87.6z M119.4,81c-1.5,1.5-5,9.5-9.3,6.2c-2.1-1.7,1.8-3.3,3.4-3.9
	C114.4,82.9,118.9,81.1,119.4,81L119.4,81z M191.6,81.1c2.1,0.7,10.7,3.6,5.9,5.5c-2.6,1.1-4.2-1-5.3-2c-1-1.1-2.4-3.3-3.2-4.6
	L191.6,81.1L191.6,81.1z M101.4,74.3c-0.6,1-0.5,1.4-1.9,3.5c-0.8,1.1-1.6,2-2.4,3c-5.7,7.2-1.8,5.7-1,4.8c0.7-0.8,0.3-1.3,2.5-2.9
	c1.7-1.2,5.4-3.3,5.3-5.5C103.9,76,102.3,74.7,101.4,74.3L101.4,74.3z M52.9,77.1c-1.5-0.2-3.2-0.6-3.7-1.7c-0.6-1.2,0.4-3.3,1-3.9
	C52.1,72,52.7,74.8,52.9,77.1L52.9,77.1z M220.9,119.1c-3.9,1.1-10.6-1.8-13.4-3.5c-3.4-2-2.7-3.2-2.6-5.9c0-0.6,0.1-5.7,0.3-6
	c0.3-0.6,1-0.2,1.2,0.1c0.7,0.3,2.8,2.5,3.4,3.2c0.6,0.6,1.1,1,1.9,1.5c1,0.6,1.3,0.6,2.7,0.5c2-0.1,4.4-0.2,6.4,0.1
	c2.4,0.4,3,1.1,4.8,1.7l0.7-0.9c0-0.1,0.1-0.1,0.1-0.1c-0.2-2.6,0.6-3.5-1.2-7.8c-0.6-1.5-1.5-3.3-2.6-4.5c-0.4-0.4-0.8-0.7-1-1.1
	c-0.6-0.3-0.9-0.6-1.6-0.7c-0.1,0.8-0.6,3.5-0.3,4.1c0.5,1,3.3,1.2,4.5,4.5c0.4,1,0.8,2.8,0.5,3.9c-1.3,0.1-3.7-1.8-5-2.8
	c-3.2-2.4-2.7-1.5-5.4-2.3c-3-0.9-4-2.3-5.5-2c-3,0.7-5,1.4-5.6-1c-1.1-4.9,0-8.9,1.7-12.9c0.5-1.3,1.9-4.3,2.8-5
	c0.7-0.5,1.9-0.8,3-0.4c1.2,0.4,1.2,1,1.9,1.7c0.4-0.8,0.5-0.5,0.5-1.6l-0.9-0.5l-0.2-1.8c-4-0.1-3.1,0.6-5,0.9l0.5-5.4
	c1.9,0.2,4.6,1.4,6,2.3c2,1.3,0.7,2.8,2.8,5.1c0-0.9-0.5-2.3-0.6-3.2c-0.2-1.5-0.2-2.4,0-3.9c-4.1-0.3-6.6-1.6-10.1-2.5
	c0.4-1.1,1.2-2.5,1.7-3.7c1.4-3.2,1.4-6.5,3-10.1l0.7-1.3c0.2-0.2,0.1-0.1,0.3-0.3c0.8,0.5,1.4,1,2.3,1.7l6.8,4.4
	c9.7,5.8,21.9,10.4,33.6,11.2l0,1.4c-1.8,0-3.3-0.4-4.8-0.5l0.2,1.2c1.2,0.3,2.2,0.5,3.5,0.6c0.7,0.1,1.4,0,2.1,0
	c0.9,0,0.8,0.2,1.1,1.2c-1.2,0.1-2.5,0.2-3.7,0.2c-1.9-0.1-2.8-0.5-3.3,0.1c0.2,0.6-0.7,0.4,1.7,0.6l5.6,0.2l-0.1,1.3
	c-2.8,0.4-6.3-0.7-8.7-0.7l-0.4,1.1c1.1,0.4,2.8,0,3.6,0.6l0.1,0.8c-1.8,0.2-2.5,0-4.1-0.1l-0.2,1.2c3.4,0.1,5.6,0.2,9-0.1l0,1.4
	c-3.5,0.4-6.4,0.3-9.9,0c-1.4,8.6-4,15.7-8.4,21.1C233.5,111.6,228.4,115.8,220.9,119.1L220.9,119.1z M70.3,104
	c-0.8,0.3-0.7,0.5-1.7,0.5c1.3,3,5.9,7,8.6,8.9c1,0.7,2.4,1.6,3.6,2.2c2.5,1.3,5.2,2.4,8.1,3.5c3.6,1.4,5,2.9,9.2,1.2
	c2.4-1,8.2-3.7,8-6.4c-0.3-3.7-0.4-10.4-0.4-14.2c-0.1-4.5-2.3-2.6-5-2c-0.9,0.2-1.9,0-2.8,0.2c-1.7,0.4-2.4,1.8-3.4,2.7
	c-3.1-0.8-4.3,0.9-6.7,2.4c-0.7,0.4-1.5,0.6-2,1.1c0.2,0.9,1.2,1.9,2.2,2.1c2.2,0.4,4.5-1.7,6.4-2.6c2.1-1,2.7,0,6-2.8
	c0.6-0.5,1.6-2.1,2.6-1.4c1.1,1-0.1,2.1-0.3,3.3c-0.4,1.9,2.4,5.9-3.5,9c-1,0.5-2.4,0.9-3.8,0.8c-1.8-0.1-2.2-0.5-3.3-1.3
	c-1.7-1.2-3.4-2.3-5.3-3.5c-2.6-1.6-4.6-2.3-4.4,2.1c-4.2-6.3,4.8-7.6,7.3-11.4c0.4-0.5,0.4-1.5,1-1.9c1.1,0.5,0.1,4.6,4.2,1.7
	c0.8-0.6,1.5-0.8,1.4-2.1c-0.2-4.4-7.7-9.1-2.2-15.2c2.9-3.3,4.5-3.6,6.3-7.9c1-2.3-2-8.5-2.5-11.4c-0.6,0.2-0.9,0.5-1.3,0.8
	c-4.4,4.3-13.6,9.6-19,11.9c-6.2,2.7-13.5,4.4-20.5,4.1c-2.9-0.1-4.9-0.6-7.6-1l0.1,1.4c4.4,1.4,7.5,1.1,12.1,1l0.5,1.4
	c-1.7,0.8-6.7,0.7-8.9,0.3c-1-0.2-1.9-0.6-2.7-0.7l0,1.6c2,0.4,3.3,1.1,5.7,1.2c2.5,0.1,4.2-0.2,6.6-0.6l0.4,1.6
	c-4.9,0.6-7.8-0.2-12.4-0.4c0.5,1.5,0.7,1.3,2.3,1.7c1,0.2,2.1,0.4,3.2,0.6c2.8,0.4,4.3,0.1,7-0.2l0.5,1c-3.5,0.9-7.7,0.4-11.2,0
	c0.3,0.6,0,0.1,0.3,0.6c0.1,0.1,0.3,0.4,0.4,0.6c0.9,1.2,1.6,1,4.3,1c2.1,0,4.2-0.4,6.2-0.4l0.4,0.8c-1.7,1-5.4,0.5-6.5,1
	c0,1.2,1.4,1.1,3.3,1c1.4-0.1,2.5-0.6,3.8-0.7c-0.2,2.4,1.1,5.3,2,7.1c0.6,1.1,1.1,1.8,1.7,2.8C68.9,101.9,70,103.1,70.3,104
	L70.3,104z M256.6,73.6c4.4,0.7,7.8-4.7,1.7-5.6c0,1.1-0.1,2.3-0.5,3.3C257.5,72.3,256.9,72.9,256.6,73.6L256.6,73.6z M64.6,74.8
	c0.4-0.3,3.5-1.8,4.3-2.3c3.3-2.1,6.3-4.8,9.3-7.3c0.7-0.5,1.1-1,1.8-1.4c0.4,0.6,2.2,6.6,2.2,7C81.3,71.5,66.5,78,64.6,74.8
	L64.6,74.8z M230.3,60.5l-0.9-0.8c-0.8,1.7-1.5,4.1-1.3,6.3c4.4,1.9,10.9,4.7,15.6,5.5c-0.5-0.7-1.2-1.3-1.8-1.4L230.3,60.5
	L230.3,60.5z M83,65.9c-0.2-3.6-0.9-4.9-2.3-7.5c1.1,0.7,2,1.5,2.6,2.9C83.8,62.4,83.9,64.9,83,65.9L83,65.9z M226,63.5l1-7.7
	C226,57.3,224.8,61.4,226,63.5L226,63.5z M117.9,43.9c1.5-0.7,4.8,3.7,2.9,5.2C118.8,50.5,116.2,44.6,117.9,43.9L117.9,43.9z
	 M187.1,42.9c0.3-0.3,0-0.4,0.8-0.2c0.5,0.1,1.4,0.7,1.7,1.4c0.2,0.5,0.3,1.1,0.1,1.6c-0.2,0.8-0.4,1-0.8,1.3
	c-1.1,1-2.9-0.2-3.3-1.1C185.1,44.5,186.1,43.1,187.1,42.9L187.1,42.9z M115.9,51.3c2.4-1.1,1.2-3,0.1-4.6c-2.3-3.6-0.8-3.7-0.1-4.9
	c-0.9-0.1-2-0.3-2.6,0.3c-2.1,0.2-3.1,3.5-2.3,6.1C111.6,49.9,113.6,52.6,115.9,51.3L115.9,51.3z M191.1,40.5l-1.8,0.4
	c1.1,0.9,2.9,1.5,3.4,2.8c0.7,2.1-1.4,2.6-1.4,4.6c0.7,0.6,2.2,1.6,3.4,0.9C198.4,47.9,196.4,40.3,191.1,40.5L191.1,40.5z
	 M171.3,50.1c1.3-4.6,4.6-9.1,8.5-11.5c-1.2,2.2-2.2,2.3-3.8,6.2c-0.5,1.3-0.9,2.4-1.2,3.8c-0.3,1.3-0.4,2.9-1.3,3.8
	c-0.5,0.3-26.9,0.1-29.9,0.1c-16.3,0-6.4,0.8-15.4-10.9l-1.4-1.4c-0.4-0.6-0.2,0.1-0.2-0.6c2.3,0.3,8.5,7,9.5,10.6L171.3,50.1
	L171.3,50.1z M108.7,87.1l-0.1-3.4c1.3-0.8,10.2-1.9,14.7-12.5c1.4-3.4,2.3-7,2.3-11.1c0-3.9-0.8-8.5-3.1-10.5
	c-0.6,0.2-1.9,1.3-2.7,1.8c-3.3,2-7.1,2.9-9.4-0.5c-1.3-2-1.4-4.9-0.5-7.2c2.4-6.2,13.2-8,19-4.5c1.8,1.1,3.9,2.7,5,3.9
	c0.9,1.1,3.2,3.8,3.7,5.5l32.8,0c0.5-2.6,3.6-7.1,5-8.7c1-1.2,2.1-2.3,3.6-3.3c2.9-1.8,4.2-1.2,5.1-1.8c2.6,0.5,2.8-0.2,6.5,1.3
	c2.6,1,3.1,1.7,4.7,3.2c2.5,2.4,5,7.6,1.8,10.9c-2.5,1.1-3.4,1.4-6.6,0.6c-2.1-0.5-3.8-1.4-5.6-2.3l-0.9-0.4
	c-1.8,5-2.3,8.1-1.5,13.9c1.1,8.4,5.2,15.8,13.3,19c2.7,1.1,4,0.3,4.4,3.6c0.4,4.2-0.4,5.5,1.9,5.2c0.8-0.1,0.5,0.2,0.6-0.4
	c0.9-0.6,2-3.2,2.4-4.5c1.9-5.8-1-8.4-0.1-11.9c1.2-4.6,3-13.7,4.3-16.8c1.5-3.8,3.9-5.1,8.6-5.6c-0.3-1.6-7.1-8.3-8.4-9.8
	c-0.8-0.9-1.3-1.4-2.2-2.3c-1.2-1.2-0.7-1.3-2.9-1.8c-2.6-0.5-5.2-1.1-7.8-1.6c-27.2-5.1-56-6-82.9,1c-2.5,0.6-4.7,1.3-7.2,2
	c-1.2,0.3-2.4,0.7-3.6,1.1l-2.5,0.8c-0.1,0.1-0.3,0.1-0.4,0.2c0,0-0.1,0-0.1,0.1c0,0-0.1,0.1-0.1,0.1c0,0-0.1,0.1-0.1,0.1
	c0,0-0.1,0.1-0.1,0.1c-0.8,0-1.1,0.4-1.5,1c-1.9,2.5-7.9,9.4-7.4,12c1.2,0.6,3.7,0.3,5.6,1.1c5.5,2.4,1.9,7.4,6.1,14.3
	c2.8,4.7,4.2,6.3,2.4,13c-0.3,1.3,0.8,2.5,1.9,4.4c0.8,1.3,0.4,1.3,2.3,1.5L108.7,87.1L108.7,87.1z M25.5,88.1
	c1.9-2,3.6-3.9,5.7-5.8l6-5.6c4.1-3.5,8.2-7.2,12.8-10.6c10.5-7.6,16.6-12,28.5-18.2c41.1-21.4,89.3-25.5,134.3-10
	c6,2,11.1,4.3,16.7,6.7c6,2.5,17,8.5,22.6,12.2c2.4,1.6,4.9,3.1,7.1,4.7l10,7.4c1.1,0.9,2.3,1.8,3.3,2.6c1.1,0.9,2.1,1.7,3.2,2.6
	c0.3,0.3,0.4,0.4,0.7,0.6l7,6.3c0.6,0.5,1,0.9,1.6,1.3l15.1-13.3c0.3-0.3,0.8-0.5,1-0.9c1.5-1.1,4-3.6,4.9-4.1
	c-0.5-1.6-7.9-8-9.9-9.9c-0.9-0.8-9.7-8.7-10.8-8.9c-0.3-0.6-1.7-1.5-2.3-2c-46-35.5-108-48.1-165.3-36.7c-9.9,2-18.8,4.6-28,7.6
	c-3.6,1.2-23.5,8.8-25.2,10.7c-1.2,0-3.2,1.5-4.4,2.1c-5.7,3.1-11.4,6.3-16.7,9.8c-5.2,3.5-10.7,7.2-15.6,11.1c-1.3,1-2.6,2-3.7,3
	L17.4,56c-0.4,0.4-0.5,0.5-0.9,0.8l-6.9,6.4C8.1,65,5.4,67.3,3.8,69c-0.5,0.5-0.5,0.4-0.7,1.2c1.2,0.7,4.2,3.7,5.5,4.6
	c1.6,1.2,6.1,5.5,8.1,7.1c1.7,1.3,6.5,6.1,8,7C25.2,88.5,25.1,88.6,25.5,88.1L25.5,88.1z M14.4,55.1c-0.4,0.6-1.6,1.5-2.4,2.4
	c-0.7,0.7-1.7,1.9-2.4,2.2c-0.4,0.7-1.6,1.9-2.3,2.3c-0.3,0.9-3,3.2-3.6,3.9c-1.2,1.3-2.4,2.5-3.5,3.9c0.6,1,2.4,2.2,3.1,2.9
	c1.1,1.1,2.5,2.2,3,3c0.4,0.2,0.3,0.1,0.7,0.5l4.2,4.1c0.9,0.4,1.5,1.3,2.3,1.9l4.3,3.9c0.7,0.6,1.6,1.2,2.1,2.1
	c0.9,0.2,1.5,1.3,2.3,1.9c0.7,0.6,1.3,1.6,2.4,1.3c1.6-0.4,5.2-1.8,6.5-1.8c0.3-0.3,16.1-5,17.4-5.2l3.5,9c-1,0.3-3.3,0.4-4.5,0.5
	c-4.2,0.5-8.4,1.3-12.4,2.3c-2.6,0.6-5.3,1.4-7.7,2.2c-2.4,0.8-5,1.8-7.3,2.5c-3.1,1.5-17.1,6.3-19.2,8l10.3,2.6l-1.5,3.2
	c-0.2,0.7-0.5,1.4-0.9,2.1c-0.2,0.3-0.3,0.7-0.5,1c-0.3,0.6-0.1,0.4-0.5,0.9l-0.7,2c1-0.3,2-1.1,3-1.2c0.7-0.8,5.6-2.6,7-3.2
	c1.3-0.5,6.2-2.6,7.2-2.6c0.6-0.6,2.8-1.1,3.5-1.4c1.1-0.4,2.3-0.8,3.5-1.1c2.4-0.7,4.8-1.4,7.3-2.1c3.7-0.9,12.1-3,15.8-2.8l-3,4.1
	c-1.8,2.5-4.3,6.5-4.9,9.6c-0.7,3.1,0,3.8,1,6l0.4,0.5l-11.2-0.1c-0.9,1.1-1.9,2.5-2.7,3.6c-1,1.3-1.8,2.4-2.7,3.6
	c-0.3,0.5-1.7,2.4-2.2,2.7c-0.2,0.7-2.4,3.4-3,4.2c-0.5,0.7-1,1.3-1.5,2c-0.5,0.7-1,1.6-1.7,2c-0.1,0.6-2.1,3-2.6,3.7
	c-0.9,1.3-1.7,2.3-2.7,3.6c-0.9,1.2-1.8,2.4-2.7,3.6c-0.8,1-2.1,2.6-2.6,3.6l9.3,6.7c0.9,0.3,4.5,2.8,5.9,3.7
	c15,9.2,28.6,16.2,45.8,22.2c43.6,15.4,89.5,19.3,135.3,9.9c10.3-2.1,20.9-4.9,30.3-8.4c4.8-1.8,9.4-3.5,14-5.4
	c2.6-1.1,11.1-4.9,13.2-6.1c4.6-1.9,15.6-8.7,19.8-11.3c2.2-1.4,15.8-10.6,17.8-13l-19.6-24.4c-1.1-1.4-2.2-2.7-3.3-4
	c-1.8-2.2-2.6-2.7-2.8-4.5l-12.9,0.5c0.5-1.1,1.1-1.8,1.6-3.2c1.5-4.1-0.5-7.5-2.8-10.5l-8.7-10.2l1.8-0.2c4.7-0.2,9.3,0.7,13.5,1.7
	c1.1,0.3,10.9,2.7,11.7,3.5c0.7,0,7.4,2.2,8.7,2.8l0.4,0.2c0,0,0.1,0.1,0.1,0.1c1,0,5.1,1.7,6.3,2.2c1.2,0.4,5.2,2.2,6.1,2.2
	l-0.2-0.9c-0.7-1.6-1-2.4-2-3.8c-0.7-1-1.8-2.4-2.2-3.5l1,0.1l3.6-0.4c0.9-0.2,1.7-0.4,2.6-0.6c0.7-0.2,1.9-0.8,2.4-0.8
	c-0.2-0.6-0.6-0.6-1.2-1c-0.5-0.3-0.8-0.5-1.3-0.8c-0.9-0.5-1.7-1-2.7-1.5c-14.1-7.8-30.1-10.7-46.5-11.1l3.4-9.3l12.7,3.5
	c1.8,0.5,11.6,3.5,12.6,3.2c0.1-0.4,0-0.2,0.3-0.6c1.7-1.9,3.7-3.8,5.6-5.6l16.3-16.3c-0.4-0.7-0.9-1.1-1.6-1.7
	c-0.5-0.5-1-1.1-1.5-1.7c-2.4-2.5-3.9-4.2-6.6-6.5l-10.2-9c-1.3-1-2.3-1.9-3.6-2.9c-11.7-8.9-20.9-14.9-35.7-22.2
	C222.9,7.2,195.3,1.4,165.8,0.2c-30.7-1.3-62.5,5.5-87.8,15.4c-13.8,5.4-22.1,10-34.3,17.3C41,34.5,38.6,36.2,36,38
	c-1.3,0.9-2.6,1.7-3.9,2.7c-1.2,0.9-2.4,1.8-3.6,2.7C23.3,47.1,18.9,51.2,14.4,55.1z"/>
<path fill-rule="evenodd" clip-rule="evenodd" fill="#A29368" d="M237.1,154.2c0.6-0.8,2.3-0.9,3.4-0.6c1.2,0.3,1.6,1,2.1,2
	c1.3,2.6-0.4,4.3-2.4,5l-1.2,0.5l-3.1-6.5C236.3,154.3,236.5,154.3,237.1,154.2L237.1,154.2z M232.2,173.4c-2.3,0.9-2,0.1-3.3-3.1
	c-0.5-1.3-0.9-2.4-1.4-3.6c-0.7-1.9-2.4-5.5-2.8-7.3l1.5-0.6c0.8-0.5,1.7-0.9,2.3-0.3c0.3,0.3,1.2,2,1.4,2.4
	c0.7-0.2,1.5-0.4,1.9-0.8l-1.3-3.4l1.5-0.5c1,0.3,1.3,1.7,2,3.3c0.8,1.6,5.1,10.2,5,10.7c-0.4,0.5-1.1,0.8-1.6,1.1
	c0.1,0.4,0.4,0.9,0.6,1.2l7.3-3.3c-0.6-1.6-0.3-1.1-1-1c-0.8,0.3-0.8,0.4-1.7,0.3l-2.8-5.7l1.5-0.6c3.5-0.7,4.5,2.2,6.4,3.6
	c2.3,1.7,5.7,0.7,7.6-0.9c-0.1-0.6-0.2-0.7-0.6-1.1l-0.9,0.3c-2.4,1.1-4-1.4-4.9-2.3c-1.7-1.6-2.1-1.9-5.2-1.9
	c5-3.4,2.6-9.4-2.8-8.8c-4.4,1-7.2,3.1-11.1,4.4c0.2,0.3,0.3,0.6,0.4,1.1l-0.5-0.8l-15.4,5.6l1.7,4.6l1.8-0.6
	c-0.1-1.1-0.7-2.3-0.4-3.3c0.5-0.5,2.6-1.2,3.5-1.3c0.8,2.3,1.9,4.8,2.8,7.1c0.5,1.4,2.7,6.2,2.8,7.3c-0.5,0.6-1.1,0.9-1.9,1.1
	l0.4,1.3l8.1-2.9c0-0.2-0.1-0.6-0.2-0.8C232.5,173.3,232.8,173.5,232.2,173.4z"/>
<path fill-rule="evenodd" clip-rule="evenodd" fill="#A29368" d="M197.8,177.2l0.6,2.5c-0.5-0.3-5.5-5-6-5.6c-1-1.2-1.9-1.9-2.9-2.9
	c-1.4-1.3-2.6-2.1-2.8-3.2l-5.2,1c-1.2,0.2-1.1,0-1.1,1l-0.4-0.9l-8.3,0.9l0.2,1.3l2.2,0c0.5,0.8,2.1,14.9,1.9,15.2
	c-0.6,0.6-1.2,0.5-2.1,0.7l0.1,1.2c0.6,0.2,6.4-0.5,7.8-0.7c1-0.2,0.7,0.1,0.8-0.5l-0.1-0.9c-3.1,0.2-2.4,0.7-3.5-8.1
	c-0.2-1.4-0.3-2.8-0.5-4.1c-0.2-1.5-1-3.4,0.8-3.3c0.4-0.3,2.5-0.4,3.2-0.2c0.4,0.3,2.5,10.9,3,12.9c0.5,2.2,0.6,2.3-1.7,2.9l0,0.5
	c0.2,0.2,0,0,0.2,0.4l0.1,0.3c0,0,0,0.1,0.1,0.2c0.5-0.1,5.8-1,6.3-1.4l-0.3-1.1c-2.9,0.1-2.1,0.5-3.5-5.5c-0.5-2-1.4-5.3-1.6-7.3
	c0.6,0.4,1.9,1.6,2.1,2.1c0.8,0.4,0.8,0.6,1.4,1.3l9.5,9.1c0.8,0,2.9-0.1,3.2-0.9c-0.8-2.6-1.4-6.1-2-8.9c-0.3-1.5-0.6-3-1-4.4
	c-0.4-1.6-1.3-3.4,0.9-3.5l0.5-0.3l-0.2-1.1c-0.6-0.1-5.8,0.9-6.4,1.2l0.2,1.2c0.9,0,1.5-0.2,2.3,0.1
	C196.2,168.8,197.6,175.6,197.8,177.2z"/>
<path fill-rule="evenodd" clip-rule="evenodd" fill="#A29368" d="M77.9,163c-1.2,1.1-3.8-0.1-4.9-0.6l2.8-6.8l0.9,0.4
	c1.6,0.4,3.1,1.4,3.3,3.1C80.2,160.9,79.1,162.4,77.9,163L77.9,163z M81.9,175.2c-0.8-0.6-1.7-0.7-2.3-1.5c-1.2-1.8,1.1-7.1-2.3-8.6
	c0.3-0.2-0.5-0.4,0.6-0.2c1.9,0.1,2.3,0.1,3.9-0.7c1-0.7,2.3-2.2,2.1-4.4c-0.2-1.8-1.7-3-2.9-3.7c-2.7-1.6-6.4-2.4-9.1-3.7l-1-0.4
	l-0.6,1.2c0.7,0.5,1.2,0.4,1.8,1.2c-0.2,1.2-2.3,5.7-2.9,7.1c-3.7,8.7-2.5,7-5.3,6.7l-0.4,1.1l7.5,3l0.5-1.1
	c-0.6-0.8-1.2-0.3-1.7-1.3c-0.1-0.5,2-5.5,2.5-5.9c4.4,1,2.9,5.4,3,7.4c0.1,2.9,3,4.6,5.9,4.9L81.9,175.2z"/>
<path fill-rule="evenodd" clip-rule="evenodd" fill="#A29368" d="M57.5,163.3c-1.6,1.1-4.3-0.1-5.1-1c-1.1-1.3-1.4-3.6-0.9-5.6
	c0.7-3,3.7-7.8,6.2-7.9l0.7-0.4c0.6-0.2,1.7-0.1,2.3,0.1C67.5,150.7,62.1,162,57.5,163.3L57.5,163.3z M47.6,158.3
	c0.4,1.1,0.5,1.8,1.1,2.8c1.6,2.6,3.9,3.8,7.1,4.6c3.6,0.3,4.1-0.2,6.8-1.3c0.8-0.7,1.6-1.1,2.4-2c5.7-6.9,1.8-16.6-8.8-16.2
	c-1.6,0.6-2.2,0.4-3.8,1.4c-1,0.7-2,1.6-2.7,2.6C48.2,152.3,47.3,154.8,47.6,158.3z"/>
<path fill-rule="evenodd" clip-rule="evenodd" fill="#A29368" d="M82.6,175.3l-0.5,0.1l-0.4,1.1l14.9,4.7l1.5-4.6l-1.9-0.7
	c-0.3,0.9-0.7,1.9-1.3,2.4c-0.3,1.1-2.5,0-3.3-0.3c-1.1-0.3-2.8-0.7-3.6-1.3l2.2-6.7l1,0.2c3.5,0.8,2.9,0.9,2.6,3.3l1.7,0.5l2-6.1
	l-1.6-0.6l-0.7,1.4c-0.4,1-0.9,0.7-1.9,0.4c-0.8-0.3-1.6-0.5-2.4-0.8l2.1-6.3l1.1,0.3c0.9,0.2,4.1,1.1,4.6,1.5
	c0.2,1-0.1,1.8-0.2,2.9l2,0.5l1.3-4.2l-14-4.4l-0.3,1.2l1.8,0.9c0.1,1.2-2.1,6.9-2.6,8.3c-0.5,1.4-0.9,2.6-1.4,4
	C84.7,174.8,84.7,176.4,82.6,175.3z"/>
<path fill-rule="evenodd" clip-rule="evenodd" fill="#A29368" d="M147.4,188.7l0.3-4.5l-0.6,0l-1.4-0.1l-0.6,2.7l-0.3,0.5
	c-1.5,0.2-5.3-0.2-7-0.3l0.6-7.3l1.4,0.1c3.1,0.3,2.6-0.2,3,2.6l1.7,0.1c0-0.6,0-1.7,0.3-2.1c-0.2-1.4,0.4-3.1,0.1-4.4l-1.5-0.1
	l-0.5,1.7l-0.2,0.5c-1,0.2-2.9,0-4.1-0.1l0.5-6.7l1,0.1l5.1,0.4l0.4,2.8l2,0.2l0.3-4.3l-14-1l-0.2,1.2c0.1,0,0.1,0,0.2,0.1
	c0,0.1,0.1,0,0.2,0.1l1.2,0.5c0.2,0.9-0.8,14.3-1.1,15.3c-0.7,0.3-1.3,0.1-2.2,0.3l-0.1,1.3l15.5,1.1L147.4,188.7z"/>
<path fill-rule="evenodd" clip-rule="evenodd" fill="#A29368" d="M207.9,174.2l0.4-7.1c0.4,0.2,4.1,5.2,4.4,5.7
	C212.2,173.2,208.4,174.1,207.9,174.2L207.9,174.2z M209.9,181.8l-0.3-0.9c-0.9,0.1-1.4,0.3-2.1,0.1c-0.1-1.1,0.1-2.3,0.2-3.3
	c0.1-1.9-0.2-1.8,1.5-2.1l4.6-1.3c0.3,0.3,0.5,0.5,0.8,0.9c0.6,0.9,2.1,2.6,2.3,3.4c-0.5,0.4-1,0.5-1.7,0.8l0.3,1.3l5.8-1.5
	c0.9-0.2,1.5-0.1,1.7-0.9l-0.3-0.8l-1.8,0.1c-0.4-0.6-0.9-1.2-1.3-1.8l-9.8-13l-3,0.6c-0.5,1.3-1.3,15.9-1.5,18.4l-1.6,0.6l0.3,1.3
	c0.9-0.1,2.2-0.5,3.1-0.8C208.8,182.6,209.7,182.6,209.9,181.8z"/>
<path fill-rule="evenodd" clip-rule="evenodd" fill="#A29368" d="M107.7,181.6c-1.8,0.7-4.5,0.1-5.5-1c-0.2-0.9,0.1-2.5,0.2-3.5
	l-0.8-0.3l-1.3-0.3l-1.2,5c1.8,0.7,3.1,1.6,5.4,2.1c2.8,0.6,4.2,0.3,6.5-0.7c1.1-0.9,2.4-1.9,2.4-4.3c0-3.7-4.2-5.1-6.2-7.5
	c-1.3-1.5-0.8-4.1,1.3-4.2c0.7-0.8,2.9,0.1,3.6,0.4c1.2,0.6,0.6,2.1,0.5,3.7l2,0.4l0.2-0.7l0.8-3.8c-0.9-0.3-1.9-0.9-3-1.4
	c-1.1-0.4-2.3-0.7-3.5-0.8c-2.7-0.2-4.4,0.7-5.6,2.1c-1.4,1.7-1.4,4.1-0.1,5.9c1.8,2.5,5.4,3.8,5.7,6.2
	C109.3,180.4,108.6,181.2,107.7,181.6z"/>
<path fill-rule="evenodd" clip-rule="evenodd" fill="#A29368" d="M168.8,188.3c1-0.8,1.2-0.7,1.9-1.8c1.7-2.9,0.5-5.8-2.8-7.4
	c-1.8-0.9-3.9-1.4-5.1-2.6c-1.7-1.6-0.7-4.5,1.5-4.4c0.7-0.5,2.7-0.3,3.3,0.2c0.7,0.5,0.5,2.2,1,3.1l1.9,0c0.1-1,0-3.7-0.2-4.5
	c-5.2-2.1-12.9-0.2-12,5.5c0.8,5.4,11.2,4.9,9,9.7c-0.8,1.7-6,2.7-6.6,0.4c-0.2-0.9-0.3-1.8-0.5-2.7l-2-0.1
	c-0.2,0.8-0.1,4.3,0.1,4.9c0.3,0.3,0,0.1,0.5,0.3c1,0.4,3.9,0.6,4.9,0.6C166,189.5,167.1,189.1,168.8,188.3z"/>
<path fill-rule="evenodd" clip-rule="evenodd" fill="#A29368" d="M261.5,149.8c0.4,0.4,1,0.7,1.3,1.2l-4.4,2.4l-1.3-7
	C257.8,146.6,260.4,149,261.5,149.8L261.5,149.8z M273.2,153c-0.9,0.7-1.4,0.4-2.1-0.2l-5.8-4.6c-0.4-0.3-7.5-5.7-7.6-6.2l-0.6-0.2
	l-2.6,1.4l3.2,18.3c-0.6,0.3-0.9,0.5-1.4,1l0.6,1l5.4-2.9l-0.6-1.1c-0.7,0.2-1.3,0.6-2,0.6c-0.5-0.7-1.1-4.2-1-5.1l5.4-2.9
	c0.7,0.5,3.8,2.9,4.1,3.5c-0.3,0.7-0.9,0.7-1.4,1.3l0.6,1.1c0.5-0.1,6.3-3.4,6.8-3.7C274,153.5,274,153.2,273.2,153z"/>
<path fill-rule="evenodd" clip-rule="evenodd" fill="#A29368" d="M116.7,169.5c-0.1,0.7-0.4,1.7-0.2,2.3l1.8,0.3
	c1.5-4.1,0.1-3.1,4.9-2.6c-0.5,4.2-1.6,9.1-2.3,13.5c-0.3,1.9-0.1,1.4-0.6,1.7c-0.8,0.5-1.1-0.2-2.2,0.2l-0.1,1
	c0.7,0.4,7.6,1.5,8.6,1.3l0.1-1.1c-0.9-0.4-1.3-0.2-2-0.8c-0.3-0.9,2-13.5,2.4-15.3c1,0,3,0.4,3.8,0.7l0,3c0.2,0.5,1.6,0.6,2,0.4
	c0.1-0.5,0.4-2,0.4-2.5c0.1-1.4,0,0-0.2-1.1c-0.1-0.4,0-0.7,0-1.2c-2.6-0.3-14.7-2.6-16.1-2.3C117.1,167.8,116.9,168.7,116.7,169.5z
	"/>
<path fill-rule="evenodd" clip-rule="evenodd" fill="#A29368" d="M173.6,22.4l0.3-13.4l-1.4-0.1L171,8.8l-1.8,9.1l-0.9-4.6
	c-0.2-1.5-0.4-3-0.7-4.5c-0.8-0.4-1.9-0.3-2.8-0.3c-0.1,2.4-0.6,12.4-0.2,14l1.6,0l0.4-10.6l1.6,10.7l1.8,0
	c0.2-1.6,1.6-9.3,2.2-10.2l-0.2,10.4l1.7,0L173.6,22.4z"/>
<path fill-rule="evenodd" clip-rule="evenodd" fill="#A29368" d="M233.4,39.5c0.4-0.7,2.1-8.7,2.4-10l-0.5,11l1.9,0.7
	c0.9-3.2,2.6-6.2,3.9-9.2c-0.1,3-2,7.4-2.1,10.2l1.6,0.6l2.9-13.2l-2.7-1.3l-3.6,8l0.3-9.6l-2.7-1.2c-0.3,3-2.8,11.3-2.8,13.3
	L233.4,39.5z"/>
<path fill-rule="evenodd" clip-rule="evenodd" fill="#A29368" d="M150.2,14.1c-0.5,0.4-2.2,0.5-3.1,0.3l-0.1-3.4l1.5-0.1
	c1.1,0,2-0.2,2.3,0.9c0.2,0.5,0.2,1.5-0.2,1.9C150.3,14.2,150.6,13.8,150.2,14.1L150.2,14.1z M147.1,21.8l-0.1-5.1
	c0.9,0,1.2-0.1,1.5,0.3c0.5,0.3,0.2,0,0.5,0.5l2.2,4.5c0.1,0.2,0.1,0.2,0.3,0.4c0.3,0,0.9,0,1.1,0c1.4-0.2,0.6,0.1,0.9-0.4
	c-0.5-0.5-1.4-3.2-2.2-4.4c-0.4-0.7-0.5-0.7-1-1.2c0.2-0.2,3.4-1.4,2.1-5.7c-0.8-2.7-3.3-2.2-6.1-2.1l-1.3,0
	c-0.4,1.7,0.1,11.4,0.1,14l1.7-0.1C147.2,22.4,147.1,22.1,147.1,21.8z"/>
<path fill-rule="evenodd" clip-rule="evenodd" fill="#A29368" d="M111,20.3l-1.3,0.3c-0.1-0.7-0.2-1.4-0.3-2.2
	c-0.2-1.3-0.4-1.5,1-1.4l0.4-0.2c0,0,0.1,0,0.1-0.1c0.4-0.2,1.4-0.3,1.8-0.1C112.8,16.7,115,19.6,111,20.3L111,20.3z M107.9,22.3
	l-0.1,0.6c0.4,0.5,0.7,5,0.8,6c0.6-0.1,1.6-0.1,1.9-0.6l-0.5-5.6c0.7-0.1,0.7-0.2,1.3,0c1.2,0.6,2.5,3.3,3.5,4.8
	c1.8-0.2,2.1-0.2,2.1-0.9c-0.8-0.6-1.2-2.8-3.6-4.9c0,0,0.1-0.1,0.1-0.1c0,0,0.1-0.1,0.1-0.1l0.2-0.2c2.9-2.6,1.5-6.4-0.4-7.3
	c-1.5,0-4.6,0.6-5.9,1.1c-0.3,0.7,0.1,2.7,0.2,3.4C107.6,19.8,107.8,21,107.9,22.3z"/>
<path fill-rule="evenodd" clip-rule="evenodd" fill="#A29368" d="M65.4,35.5c1.2-0.3,3.6-2.6,4.1-0.1c0.3,1.9-1.6,2.9-3.2,3.5
	L65.4,35.5L65.4,35.5z M67.8,46.7c0.5-0.6-0.1-1.8-0.3-2.7c-0.3-1-0.6-2.1-0.7-3.1c0.5-0.2,1-0.5,1.5-0.4c1.1,0.4,3.2,3,3.7,3.7
	c1.2-0.2,1.3-0.7,2.3-1.1c-1.2-2.2-4-4-4.3-4.3c0.9-0.9,1.6-2,1.5-3.9c-0.2-2.2-0.9-2.7-1.8-3.4c-2-0.1-4.9,1.8-6.5,2.7l3.3,13.1
	L67.8,46.7z"/>
<path fill-rule="evenodd" clip-rule="evenodd" fill="#A29368" d="M39.5,58.6c0.6,0.6,1.9,4.7,2.1,5.8c0.8-0.3,0.9-0.6,1.6-1
	l-2.7-8.2c0.5,0.5,1.1,0.8,1.6,1.3l4.3,4.1c0.7-0.1,1-0.4,1.4-0.8l0.5-0.3l-4.2-12.4c-0.7,0.3-1.2,0.7-1.5,1.2l2.8,8.1
	c-0.5-0.4-1.1-0.7-1.6-1.2l-3.1-2.9c-0.6-0.5-1-1.1-1.6-1.4c-0.6,0.3-1.1,0.8-1.6,1.2C37.8,53.4,39.5,57.5,39.5,58.6z"/>
<path fill-rule="evenodd" clip-rule="evenodd" fill="#A29368" d="M138.6,11.6c2.4,0,2.7,1.7,2.8,4c0.1,1.9,0.2,4.3-1.3,5.1l-2.5,0.3
	l-0.2-9.2L138.6,11.6L138.6,11.6z M141.5,22.5c1.8-2.5,2.2-4.1,1.8-8c-0.6-5.3-2.8-5-4.9-5.3c-0.6,0.4-2.1,0.3-3,0.4
	c-0.4,1.8,0.3,11.2,0.4,13.9C137.4,23.6,139.8,23.2,141.5,22.5z"/>
<path fill-rule="evenodd" clip-rule="evenodd" fill="#A29368" d="M33.2,58.4c0,0,0.3-0.6,1.4,0c1.2,0.7,4.2,6,0.7,8.9
	c-2.2,1-3.3-1.6-3.8-3.4c-0.3-1.1-0.5-2.3-0.2-3.5C31.6,59.5,32.3,58.5,33.2,58.4L33.2,58.4z M33.7,70.2c1,0,1.7-0.4,2.5-0.7
	c0.1-0.4,0.1-0.2,0.5-0.6c4.5-4,1-14.8-3.8-13.1c-2.4,0.8-4.1,3.9-3.7,7.5c0.2,1.4,0.7,3.2,1.3,4.3C31.4,69.1,32,69.8,33.7,70.2z"/>
<path fill-rule="evenodd" clip-rule="evenodd" fill="#A29368" d="M124.8,13.6c0.8-0.7,1.9,0.3,2.3,0.9c0.5,0.7,0.7,1.8,0.8,2.7
	c0.3,2.3,0.1,4.4-1.5,5.4c-0.7,1-2.2,0-2.6-0.6c-0.6-0.7-0.9-1.8-1-2.9C122.5,17.1,122.7,13.8,124.8,13.6L124.8,13.6z M120.8,18.7
	l0.3,2.9c0.8,0.8,0.6,2.3,2.4,3.4c1.8,1,3.1,0.2,4.4-0.5c1.7-1.7,2.3-4.1,2-7.4c-0.3-2.8-1.2-5.2-3.5-6
	C121.8,10.4,120.6,14.5,120.8,18.7z"/>
<path fill-rule="evenodd" clip-rule="evenodd" fill="#A29368" d="M101.3,19.6c0.8-0.7,1.9,0.4,2.2,0.9c0.5,0.8,0.7,1.7,0.8,2.7
	c0.3,2.3,0.2,4.4-1.5,5.4c-0.7,1-2.2,0-2.6-0.6c-0.6-0.7-0.9-1.8-1-2.9C98.9,22.9,99.1,19.7,101.3,19.6L101.3,19.6z M104.2,30.7
	c0.1-0.3,0.8-0.9,1.2-1.4c2.3-3.6,0.8-12.9-3.8-12.2c-4,0.6-4.8,4.7-4.2,8.8c0.3,1.8,0.9,3.7,1.9,4.6
	C100.8,32,102.2,31.4,104.2,30.7z"/>
<path fill-rule="evenodd" clip-rule="evenodd" fill="#A29368" d="M211.9,28.3c-0.8,1-2.4-0.4-2.7-0.8c-0.5-0.8-0.8-2-0.7-3.3
	c0.1-2.2,0.6-5,2.8-5.2c2.1,0.4,2.7,2,2.6,4.3c0,1-0.2,2.1-0.5,3C213.1,27.4,212.8,27.7,211.9,28.3L211.9,28.3z M213.5,30.3
	c0.8-0.9,1.4-1.7,1.9-3.3c0.4-1.4,0.6-3,0.5-4.5c-0.2-3.1-1.6-5.5-4.4-5.9c-3.7-0.4-5.1,4.7-4.9,8.5c0.1,2.1,0.9,4,2,4.9
	C210.4,31.4,211.5,31.2,213.5,30.3z"/>
<path fill-rule="evenodd" clip-rule="evenodd" fill="#A29368" d="M47.5,44.4c-0.1,0.6-1.7,3.2,0,5.6c2,2.7,5.4-1.3,6.2,1.1
	c0.1,0.4,0.1,0.8,0,1.2c-0.2,1.3-2,3-3.3,1.3l-0.6-0.7c-0.4,0.6-0.7,0.6-1.1,0.9c-0.6,0.6-0.1,0.5-0.1,1.4c0.7,0.5,1,1.4,2,1.6
	c1.3,0.3,2-0.4,2.8-0.8c0.6-0.7,1-0.8,1.6-1.7c0.4-0.8,0.7-1.7,0.7-2.7c0-2-0.8-3.6-2.3-4.1c-1.1,0-1.6,0.1-2.5,0.4
	c-0.8,0.1-1.1,0.3-2,0.1c-0.8-1.5,0.3-3,1.7-3.2c0.8,0.2,0.2-0.1,0.8,0.5l0.5,0.5c0.6-0.3,0.7-0.5,1.3-0.8c0.2-0.7,0.3-0.8-0.3-1.6
	c-0.5-0.6-0.7-0.7-1.2-1.1C49.3,42.2,48.5,43.7,47.5,44.4z"/>
<path fill-rule="evenodd" clip-rule="evenodd" fill="#A29368" d="M255.3,44.9c0.6,0.2,3.2,2.9,1.4,4.2c-0.8,0.6-3.1,0.3-2.9-3.6
	l-0.4-0.3l-1.3-0.5c-0.2,2.4,0,4.3,1.3,5.6c1.8,1.8,3.1,1.7,4.8,1c0.4-1,1-1.4,1.2-3c0.3-2.6-1-4-2.6-5.6c-0.7-0.7-1.2-1.5-0.9-2.9
	c0.9-0.4,1.9,0,2.4,0.7c0.7,0.9,0,1.3,0.8,2.5l1.5,0.6l0.2-1c0.1-3.2-1.3-4.3-3.5-5.4c-2.1-0.2-3,0.8-3.3,2.8
	C253.3,42.5,254.5,43.5,255.3,44.9z"/>
<path fill-rule="evenodd" clip-rule="evenodd" fill="#A29368" d="M226.9,35.5l0.2-1.4l-5.1-1.9l0.6-3.6l1.1,0.5l3.4,1.2
	c0.1-0.2,0,0,0.2-0.4c0,0,0.1-0.3,0.1-0.4l0.2-1.3c-0.7-0.5-3.5-1.3-4.6-1.8l0.6-2.9l1.2,0.5l3.6,1.2c0.3-0.5,0.4-1.5,0.3-2.2
	l-6.7-2.5l-2.3,13.6l5.4,1.9c0.6,0.2,1.1,0.5,1.7,0.3L226.9,35.5z"/>
<path fill-rule="evenodd" clip-rule="evenodd" fill="#A29368" d="M57,40.6c0.8-0.4,1.5-0.9,2.3-1.4c0.7-0.4,1.8-0.9,2.3-1.4l-0.6-2
	c-1.9,0.6-4.6,3.1-6.4,3.6c0.2,1.5,3.2,12.3,3.6,13l6.5-3.8l-0.5-2.1c-1.6,0.5-3.5,2.4-5,2.8l-0.9-3.6l4.3-2.5L62.2,41
	c-1.5,0.6-3,2-4.5,2.5L57,40.6z"/>
<path fill-rule="evenodd" clip-rule="evenodd" fill="#A29368" d="M84.1,27.3c0.4,0.5,1.9,3.5,2.2,4.3l-2.4,1L84.1,27.3L84.1,27.3z
	 M90.6,35l-6-11.3l-2,0.7l-0.9,14.9l1.9-0.8l0.2-3.4l3.7-1.5l1.3,2.6C90,36,90.7,35.8,90.6,35z"/>
<path fill-rule="evenodd" clip-rule="evenodd" fill="#A29368" d="M179.6,13.2c0.4,0.5,0.9,4,1.1,5l-2.6-0.3L179.6,13.2L179.6,13.2z
	 M174.9,21.4l-0.1,0.7l-0.2,0.9c0.5,0.2,1.2,0.3,1.9,0.2l0.9-3l3.8,0.5l0.7,3.2l1.8,0.2c0.2-0.2,0.2,0.3,0.1-0.6l-3-13.7l-0.7-0.1
	l-1.3-0.1c-0.8,3-2.3,7.2-3.3,10.4c-0.1,0.2-0.2,0.5-0.2,0.7c0,0.1-0.1,0.3-0.2,0.4c0,0-0.1,0.2-0.1,0.1
	C175,21.3,174.9,21.4,174.9,21.4z"/>
<path fill-rule="evenodd" clip-rule="evenodd" fill="#A29368" d="M158.5,12l0.5,1.3c0.1,0.4,0.2,0.8,0.3,1.2
	c0.2,0.8,0.4,1.6,0.6,2.4l-2.6,0L158.5,12L158.5,12z M154.3,20c0,0.6-0.1,1.6-0.5,1.9c0.1,0.2-0.4,0.8,2,0.4l0.8-3.2
	c5.3-0.1,3.1-0.4,4.6,3.1c0.3,0.1,0.9,0.2,1.1,0.1c1-0.1,0.9,0.3,0.8-0.7c-0.3-0.7-3.5-12.6-3.6-13.2l-2.2-0.1
	C157.2,9.8,154.8,19.4,154.3,20z"/>
<path fill-rule="evenodd" clip-rule="evenodd" fill="#A29368" d="M275.4,59.3c0.3-0.5,2.3-3,2.7-3.3l-0.5,5.1
	C277.1,61,275.7,59.9,275.4,59.3L275.4,59.3z M279,67.2l1.1-13.5c-0.5-0.4-0.7-0.3-0.9-1c-0.4-0.2-0.4-0.2-0.9-0.3l-3.9,4.7
	c-0.9,1.2-3.3,3.8-3.8,4.9c0.7,0.4,1,0.9,1.7,1.2c0.7-0.7,1-1.3,1.7-2c0.5,0.2,2.9,2.1,3.4,2.6l-0.2,3.4c0.7,0.6,0.9,0.9,1.8,1.4
	L279,67.2z"/>
<path fill-rule="evenodd" clip-rule="evenodd" fill="#A29368" d="M248.1,43.5c-0.1,0.2-0.2,0.8-1.3,0.4c-3.4-1.4-0.1-7,0.6-12.2
	l-0.4-0.3l-1.4-0.6c-1.3,6.3-4.5,12.4,0.1,15.1c3.3,1.9,4.3-0.6,5.1-3.5c0.5-2,1.7-6,1.9-7.9c-0.6-0.2-1-0.6-1.7-0.8
	c-0.3,0.6-1.6,6.1-1.9,7.5c-0.1,0.4-0.2,1-0.4,1.3C248.5,43.2,248.5,43.2,248.1,43.5z"/>
<path fill-rule="evenodd" clip-rule="evenodd" fill="#A29368" d="M221.9,71.8c1.2,0.6,2.4,1,3.6,1.6l3.1,1.6c0.4,0.3,0,0,0.3,0.4
	c-1.9-0.3-6.1-1.8-8.1-2.5l-6-1.8c-0.5-0.1-1.5-0.5-2-0.2c1.6,1.6,16,7.1,19.1,7.2c-0.6-1.4-2-1.1-2.3-2.3c1.3-1.5,5.4,1.2,4.7-0.4
	c-0.4-1-8.1-3.5-9-3.8c-1.4-0.5-9.4-3.2-10.1-3.1L221.9,71.8z"/>
<path fill-rule="evenodd" clip-rule="evenodd" fill="#A29368" d="M268.8,56.8c-2,1.6-3.4-1.5-3-4c0.4-2.2,1.1-4.8,3.2-5
	c1.9,0.6,1.8,1.7,2,3.8l1.8,0.5l0-1.6c-0.1-2.7-1.6-4.1-3.5-5c-1.6-0.1-2.5,0.3-3.2,1.1c-0.6,0.7-1.1,1.7-1.4,2.7
	c-3.3,9.1,4.2,13.2,6.3,8.5c0.2-0.5-0.8-1.8-1.3-2.2C269.3,56.1,269.2,56.4,268.8,56.8z"/>
<path fill-rule="evenodd" clip-rule="evenodd" fill="#A29368" d="M202.1,25.3c-2.5,1.4-3.2-2.1-3-4.2c0.1-2.3,0.5-4.9,2.7-5.1
	c1.5,0.5,1.8,1.1,2,2.9c0.2,0,0.9,0,1.1-0.1c1.2-0.2,0.7,0.1,0.8-0.7c-0.5-2.3-1.2-4-3.5-4.4c-6.1-0.9-7,13-1.5,14.2
	c2.3,0.5,3.8-1.4,4.2-3.4c-0.7-0.6-0.7-0.7-1.5-1.2l-0.5,1C202.6,24.9,202.5,25,202.1,25.3z"/>
<path fill-rule="evenodd" clip-rule="evenodd" fill="#A29368" d="M20.8,71.2c0.3,0.5,0.5,1.9,1,2.9c1,2.4,2.9,5.2,5.9,3.1
	c2.6-1.7,2.3-4.9,2.1-7.2L28,70.6c0.2,1.9,0.2,3.7-1.1,4.5c-2.4,1.5-4.9-4.6-3.9-7.3c0.7-1.9,1.8-2.2,3.3-0.9
	c0.2-0.2,0.2-0.2,0.5-0.5l0.9-1.6c-1.6-1.5-3.1-2.1-5.1,0.2C20.4,67.5,21.2,69.6,20.8,71.2z"/>
<path fill-rule="evenodd" clip-rule="evenodd" fill="#A29368" d="M72.2,32l0.3,0.7c0.2,0.2,0.1,0.1,0.3,0.3l2.1,4
	c0.7,1.4,1.4,2.8,2.3,4.3c0.8-0.1,1.4-0.4,2-0.9l0.2-14c0-0.8,0-0.4-0.2-0.6l-1.7,0.9l0,10.6c-0.7-0.8-3.8-7.1-4.5-8.6l-1.9,1
	L72.2,32z"/>
<path fill-rule="evenodd" clip-rule="evenodd" fill="#A29368" d="M74.1,90.7c2.1,3.2,5.8,3.9,9.5,2.5l2.3-1.1c0.1,0,0.3-0.2,0.3-0.2
	c0.2-0.1,0.2-0.2,0.3-0.3c-1-4.2-6-1.3-8.1-1.8c-0.9-0.2-0.6-0.5-1.6-0.7C75.6,88.9,74.3,89.7,74.1,90.7z"/>
<path fill-rule="evenodd" clip-rule="evenodd" fill="#A29368" d="M280.4,68.1l-0.4,1.3c0.8,0.8,5.3,5,6,5.2l0.5-1l0.3-0.8
	c-0.4-0.8-1.4-1.4-2.1-2c-0.6-0.7-1.3-1.2-2.1-1.9l4.2-10.4l-0.7-0.7l-1-0.6L280.4,68.1z"/>
<polygon fill-rule="evenodd" clip-rule="evenodd" fill="#A29368" points="94.6,33.8 92.8,22.6 94.2,22.1 95.4,21.6 95,19.3 87.8,22 
	88.1,24.3 90.9,23.3 92.8,34.5 "/>
<path fill-rule="evenodd" clip-rule="evenodd" fill="#A29368" d="M185.2,13l2.8,0.4L187.2,25l1.9,0.2l0.9-11.5l2.8,0.4l0.1-2.3
	c-1.6-0.1-6.5-1.2-7.5-1L185.2,13z"/>
<path fill-rule="evenodd" clip-rule="evenodd" fill="#A29368" d="M223.4,82.2c5.8,0.3,8.8,0.4,14,3.3c1.3,0.7,2.5,1.8,3.5,2.3
	c-0.4-3.3-2.9-4.9-5.9-5.7c-1.5-0.4-3.2-0.6-4.8-1.1c-2.2-0.6-2.4-0.8-3-2.1c-0.2-0.3-0.1-0.2-0.2-0.4L223.4,82.2z"/>
<path fill-rule="evenodd" clip-rule="evenodd" fill="#A29368" d="M227.7,91.8c0.7-1.3,2.2-0.8,2.1,0.8c-0.4,0.1-0.7,0.1-1.2,0
	C227.9,92.3,228.1,92.1,227.7,91.8L227.7,91.8z M233.7,87.6c0,0,0.1,0.1,0.1,0.1c0,0,0.1,0.1,0.1,0.1c0.5,0.8,0.7,0.7,0.6,1.8
	c-2.4,0.4-6.3-3.7-8.5-1.4c0.6,0.6,1.4,0.9,1.6,1.9l-1.3,0.8c-0.2,1.7,0.9,2.6,2.4,2.9c1.8,0.4,2.4-0.7,2.7-2.3c1.7,0,3.6,0,4.5-1.1
	C237.1,88.9,235.1,87.8,233.7,87.6z"/>
<path fill-rule="evenodd" clip-rule="evenodd" fill="#A29368" d="M69.1,85.3c-0.8,2.2,1,2.3,2.7,2.3c2.8,0,7-0.5,10.1-0.7
	c2.9-0.2,4.2,0.4,5,0.3c0.2-6.1-11.8-0.1-15.6-1.2C70.1,85.7,70.5,84.8,69.1,85.3z"/>
<path fill-rule="evenodd" clip-rule="evenodd" fill="#A29368" d="M194.9,25.7l1-10.1c0.1-1.1,0.5-2.7,0-3l-1.6-0.2
	c-0.4,2.4-1.5,11.7-1.3,13.8l1.8,0.3L194.9,25.7z"/>
<polygon fill-rule="evenodd" clip-rule="evenodd" fill="#A29368" points="118,26 117.9,26.6 119.9,26.4 119.9,25.8 118.8,12.5 
	116.9,12.8 "/>
<path fill-rule="evenodd" clip-rule="evenodd" fill="#A29368" d="M265,42.5c-0.7-0.5-0.9-0.7-1.5-1c-0.4,0.5-3.6,10.9-4.1,12.4
	c0.4,0.5,1,0.9,1.7,1.2L265,42.5z"/>
<path fill-rule="evenodd" clip-rule="evenodd" fill="#A29368" d="M241.6,93.3c-0.4-0.3-0.8-0.8-1.1-1.3c0.3-1,1.2-1.2,2.1-1.8
	c-1.6-0.2-4.4,0-5.1,1.6c0.9,1.1,2,0.2,2.3,1.6c-0.8,0.6-1.5-0.2-2.7,0.1c0,2,1.4,3.6,3,4.1c-0.1-0.7-0.4-1.1-0.7-1.7
	C238,92.8,241.7,95.4,241.6,93.3z"/>
<path fill-rule="evenodd" clip-rule="evenodd" fill="#A29368" d="M197.6,195.2c-0.4,3.3-5.1,3.1-5.7,0.2c-0.3-1.7,0.7-3,1.8-3.4
	c2.1-0.7,2.4,0.9,3.9,0.7c-1.5-3.2-8.3-1-6.2,3.5c1.8,3.9,7.5,1.7,6.9-1.7c-0.8,0-1.5,0.1-2.3,0.2c-2.5,0.2-1.9,0-2,0.6
	C194.7,195.8,196.8,195.3,197.6,195.2z"/>
<path fill-rule="evenodd" clip-rule="evenodd" fill="#A29368" d="M141.5,197.1c-0.2-1.6,1-3.1,2.4-3.3c1.8-0.3,3.2,1,3.4,2.4
	C147.8,200.2,141.9,200.6,141.5,197.1L141.5,197.1z M140.8,197.5c0.8,4.3,7.9,3.3,7.2-1.5C147.2,191.7,139.8,192.4,140.8,197.5z"/>
<path fill-rule="evenodd" clip-rule="evenodd" fill="#A29368" d="M175.6,196.3c-0.4-4.1,5.6-4.3,5.8-0.6
	C181.6,199.6,175.9,199.8,175.6,196.3L175.6,196.3z M174.9,196.5c0.6,4.5,7.8,3.6,7.2-1.1C181.5,191.1,174.2,191.6,174.9,196.5z"/>
<path fill-rule="evenodd" clip-rule="evenodd" fill="#A29368" d="M203,190.5c3.6-1.1,5.3,4.4,1.9,5.5
	C201.1,197.4,199.3,191.6,203,190.5L203,190.5z M200.3,193.9c0.3,1.8,2,3.2,4.1,2.9c1.8-0.2,3.4-1.8,3.1-4
	C206.8,188.1,199.4,189.1,200.3,193.9z"/>
<path fill-rule="evenodd" clip-rule="evenodd" fill="#A29368" d="M239.3,181c1.7-0.3,3,0.9,3.3,2.3c0.4,1.8-0.8,3.2-2.2,3.5
	C236.5,187.4,235.4,181.7,239.3,181L239.3,181z M239,180.4c-4.7,1.1-3.1,7.8,1.5,7c1.7-0.3,3.3-2,2.9-4.2
	C243,181.4,241.1,179.9,239,180.4z"/>
<path fill-rule="evenodd" clip-rule="evenodd" fill="#A29368" d="M133.6,198.7l0.4-5.5c2.4-0.1,4.2,0.5,4.1,2.9
	C137.9,198.7,136,199,133.6,198.7L133.6,198.7z M132.8,199.3c2.5,0.3,5.6,0.4,5.9-2.8c0.4-4-3.4-3.9-5.2-4c-0.1,0.1-0.1,0.2-0.2,0.5
	l-0.3,2.9C132.9,197,132.8,198.1,132.8,199.3z"/>
<path fill-rule="evenodd" clip-rule="evenodd" fill="#A29368" d="M233.3,183.1c-0.4-0.8,0.1-0.4-0.6-0.5c-0.6,0.6,1.3,3.7,1.7,5.6
	c-1.1-0.6-2.1-1.6-3.1-2.3c-1.8-1.3-2-2-3.2-1.8c0.1,0.9,1.3,3.8,1.7,5.2c0.3,0.8,0.2,1.2,0.9,1.3c0.3-0.7-1.4-4-1.8-5.6
	c1.3,0.8,2.1,1.6,3.2,2.4c1.5,1.2,2.2,2.1,3.1,1.5l-1.7-5C233.5,183.7,233.4,183.2,233.3,183.1z"/>
<path fill-rule="evenodd" clip-rule="evenodd" fill="#A29368" d="M209.4,96c0.1-0.8,0.3-1,0-1.7c-0.9,0.2-2.1,1-2.7,1.5
	c-0.7,0.5-2.1,1.3-1.7,2.5c0.8,0.5,1.3,0.3,1.9-0.4c0.5-0.6,0.4-0.9,1.6-1.1c0.7-0.1,1.9,0,2.6,0c1,0,1.6,0.1,1.9-0.7
	C212.4,95.1,210.4,95.8,209.4,96z"/>
<path fill-rule="evenodd" clip-rule="evenodd" fill="#A29368" d="M222.4,186.5c2.7-1.8,5.3,1.3,1.8,2.4c0.3,0.3,0.5,0.4,0.8,0.8
	c0.4,0.4,0.4,0.4,0.8,0.7c1.3,1,0.8,1.2,1.9,0.9c-0.5-0.8-1.6-1.4-2.2-2.1c0.4-0.4,2.1-2.1,0.3-3.5c-1.2-1-3-0.2-4.3,0.1
	c0.2,1.1,0.7,2.4,1,3.5c0.2,0.6,0.3,1.2,0.5,1.7c0.3,1,0.2,1.1,0.8,1.3C224.3,191.7,222.7,188.5,222.4,186.5z"/>
<path fill-rule="evenodd" clip-rule="evenodd" fill="#A29368" d="M128.4,192.6l0.9,3.5l-2.6-0.3L128.4,192.6L128.4,192.6z
	 M124.6,198.4c0.9,0.1,0.7,0,1.7-2l3.2,0.4c0.6,2.3,0.3,2.3,1.3,2.1l-2-7c-1.1-0.1-1,0.4-1.5,1.2L124.6,198.4z"/>
<path fill-rule="evenodd" clip-rule="evenodd" fill="#A29368" d="M101.1,192.2c-1.4-0.2-2,1.2-4,0.2c-2.6-1.3-1.6-5.9,1.9-5.4
	c2.4,0.3,1.5,1.9,3.1,1.9c-1-3.4-5.9-3.3-7-0.1C93.7,192.7,99.2,195,101.1,192.2z"/>
<path fill-rule="evenodd" clip-rule="evenodd" fill="#A29368" d="M104.8,192.1c0.3-1.1,1.3-2.1,1.8-3c0.5,0.7,0.6,2.4,0.7,3.4
	L104.8,192.1L104.8,192.1z M102.5,194.4c0.8,0,0.7-0.1,1.1-0.7c0.2-0.4,0.4-0.7,0.8-1.2l3,0.6c0.5,0.9,0,1.9,0.9,2.4
	c0.3-0.5,0.1-1.2,0-1.9c-0.3-1.4-0.7-4.4-1.1-5.3c-1-0.2-0.9,0.1-1.4,1C105,190.3,102.6,193.8,102.5,194.4z"/>
<path fill-rule="evenodd" clip-rule="evenodd" fill="#A29368" d="M216.4,187.8c0.6-0.1,1-0.2,1.6-0.4c1.4-0.3,1.1-0.3,1.2-0.6
	c-0.6-0.5-2.8,0.3-3.6,0.6l1.6,6.6c0.7-0.1,1.4-0.3,2.1-0.4c0.2,0,0.8-0.2,0.9-0.2c0.9-0.3,0.4,0.1,0.5-0.5
	c-0.3-0.2,0.3-0.2-0.6-0.1l-2.3,0.5l-0.5-2.4c0.5-0.1,1-0.2,1.5-0.4c1.4-0.3,1.1-0.3,1.2-0.6c-0.6-0.5-2.1,0.2-3,0.3L216.4,187.8z"
	/>
<path fill-rule="evenodd" clip-rule="evenodd" fill="#A29368" d="M158,194c1.2,0,2.7-0.2,2.6,1.4c-0.1,1.4-1.5,1.2-2.7,1.2L158,194
	L158,194z M158,197.3c0.9,0,3.8,0.2,3.4-2.5c-0.3-1.7-2.4-1.5-4.1-1.5c0,1.2,0,2.5,0,3.7c0,2.1-0.2,2.9,0.5,3.1
	C158.2,199.6,157.9,198.1,158,197.3z"/>
<path fill-rule="evenodd" clip-rule="evenodd" fill="#A29368" d="M167.1,193.8c0,0,0.1,0,0.2-0.1c0-0.1,0.1,0,0.2-0.1
	c-0.2-0.5,0.6-0.5-1.8-0.4c-0.6,0-1.3,0-1.9,0.1l0.2,6.8c0.7,0,1.4,0,2.1,0c1.4,0,1.4,0,1.6-0.5c-0.8-0.5-1.5,0-3-0.3l-0.1-2.4
	c0.6,0,1.1-0.1,1.7-0.1c0.7,0,1,0.2,1.3-0.3c-0.3-0.6,0.2-0.2-0.6-0.3l-2.4,0l-0.1-2.4L167.1,193.8z"/>
<path fill-rule="evenodd" clip-rule="evenodd" fill="#A29368" d="M89,188.8c-0.9,1.1,0.4,2.7,1.9,2.6c1.2-0.1,2.3-1.4,1.8-2.8
	c-0.4-1.1-2.6-1.4-2-2.8c0.2-0.6,1-1,1.8-0.5c0.9,0.6,0,0.9,0.9,1.4c0.2-0.2,0.3,0.3,0.3-0.8c0-1.7-3.1-2.1-3.6-0.1
	c-0.7,2.7,3,1.4,1.8,4.7c-0.6,0.2-1.4,0.4-1.9-0.1C89,189.6,90,189.3,89,188.8z"/>
<path fill-rule="evenodd" clip-rule="evenodd" fill="#A29368" d="M123.2,197.5c-0.9-0.1-2.4-0.2-3.1-0.6l3.3-4
	c0.4-0.4,0.8-0.7,0.8-1.5l-2.5-0.4c-0.8-0.2-1-0.3-1.4,0.1c0.1,0.4,0.1,0.4,1.3,0.6c0.6,0.1,1.1,0.2,1.6,0.2c-0.8,1.6-3.9,4-4.2,5.6
	l4.1,0.6L123.2,197.5z"/>
<path fill-rule="evenodd" clip-rule="evenodd" fill="#A29368" d="M212.6,195.1c0.4-0.6,0.8-4.3,1-5.5c0.3-1.6,0.3-1.3,0-1.7
	c-0.4,0.2-0.4-0.3-0.6,1.5l-0.8,4.6l-2.8-4.1c-0.3-0.5-0.4-1-1.1-0.9l0,0.2c0,0.4,2.3,3.8,3,4.7
	C211.8,194.6,211.9,195.1,212.6,195.1z"/>
<path fill-rule="evenodd" clip-rule="evenodd" fill="#A29368" d="M79.7,187.9c0.8-0.2,1.1-2.1,1.3-2.8c0.8,0.1,2.3,0.9,2.8,0.6
	c0-0.7-0.5-0.8-2.5-1.2l0.7-2.3c1.1,0.1,1.5,0.5,2.2,0.6c1,0.2,0.4,0.2,0.7-0.1c-0.1-0.5,0.5-0.2-1.3-0.8c-0.7-0.2-1.2-0.5-2-0.6
	C81.1,183.4,79.1,187.2,79.7,187.9z"/>
<path fill-rule="evenodd" clip-rule="evenodd" fill="#A29368" d="M218.4,91.6c0.8-0.4,4.5-5.4,4.4-6.4
	C221.1,84.6,218.5,89.5,218.4,91.6z"/>
<path fill-rule="evenodd" clip-rule="evenodd" fill="#A29368" d="M111.4,195.4c0.1-1.1,0.4-2.3,0.6-3.4c0.6-2.7,0.8-2.5,0-2.7
	c-0.4,0.5-1.3,5.6-1.5,6.7c0.6,0.1,2.3,0.6,2.9,0.5l0.3-0.1c-0.1-0.4,0.1-0.4-1.1-0.6C112.1,195.7,111.9,195.6,111.4,195.4z"/>
<path fill-rule="evenodd" clip-rule="evenodd" fill="#A29368" d="M170.2,193.1c-0.2,0.8,0,5.7,0.1,6.7c0.7,0.1,2.8,0.4,3.2-0.3
	c-0.6-0.7-1-0.1-2.5-0.3l-0.3-6.1L170.2,193.1z"/>
<path fill-rule="evenodd" clip-rule="evenodd" fill="#A29368" d="M207.4,84.6c0.4,1,1.4,1.9,2.6,2.2c1.7,0.4,2.6-0.3,3.8-0.8
	l-0.9-0.3c-0.2,0-0.6-0.1-0.9-0.1C208.6,85.4,210.1,85.4,207.4,84.6z"/>
<path fill-rule="evenodd" clip-rule="evenodd" fill="#A29368" d="M211.4,93.4c2.8-0.8,4.9-3.6,5.2-7.1l-0.3,0.5c0,0,0,0.1-0.1,0.1
	C213.3,92.3,212.2,92.1,211.4,93.4z"/>
<path fill-rule="evenodd" clip-rule="evenodd" fill="#A29368" d="M116.5,197c0.6-0.7,0.6-2.6,0.8-3.6c0.4-2.6,0.8-3,0-3.2
	c-0.3,0.4-1.3,6.3-1.1,6.7L116.5,197z"/>
<path fill-rule="evenodd" clip-rule="evenodd" fill="#A29368" d="M85.9,189.9c0.3-0.1,1.5-4,1.8-4.9c0.2-0.7,0.6-1.1,0.2-1.6
	c-0.5,0.1-0.3-0.2-0.6,0.7l-0.8,2.5c-0.2,0.6-0.4,1.2-0.6,1.8C85.2,190.3,85.4,189.6,85.9,189.9z"/>
<path fill-rule="evenodd" clip-rule="evenodd" fill="#A29368" d="M99.7,16.9c1.3-0.3,1.1-0.2,1.5-1.4c0.3-0.7,0.6-1.4,0.8-2
	c-0.4,0-0.7,0.1-1.1,0.2C100,13.9,99.8,14.5,99.7,16.9z"/>
<path fill-rule="evenodd" clip-rule="evenodd" fill="#A29368" d="M178.8,8.8c1.4,0.2,1.2,0,1.7-0.8l1.2-1.7l-2-0.2L178.8,8.8z"/>
<path fill-rule="evenodd" clip-rule="evenodd" fill="#A29368" d="M98.4,113.9c2-0.6,3.4-0.8,5.7-0.9
	C102.2,111.8,99.4,112.1,98.4,113.9z"/>
<path fill-rule="evenodd" clip-rule="evenodd" fill="#A29368" d="M208.7,110.6c0,0,0.1,0.1,0.1,0.1l3.8,1.8
	C212.1,110.3,209.8,110.2,208.7,110.6z"/>
<path fill-rule="evenodd" clip-rule="evenodd" fill="#A29368" d="M91.8,90.9c-0.2-0.7-2.4-2.6-3.4-2.9
	C88.9,89.4,90.2,90.4,91.8,90.9z"/>
<path fill-rule="evenodd" clip-rule="evenodd" fill="#A29368" d="M216.8,98.3c-0.1-0.2-0.1-0.4-0.1-0.6c-0.2-0.7,0.1,0.3-0.1-0.3
	l-0.1-0.2c-0.6,0.3-0.6,0.3-0.9,0.7c0,0.9,0.9,1.4,1.7,1.7C217.1,99.1,216.9,98.8,216.8,98.3z"/>
</svg>
